<svg width="1920" height="1080" viewBox="0 0 1920 1080" fill="none" xmlns="http://www.w3.org/2000/svg">
<g clip-path="url(#clip0_207_38)">
<g clip-path="url(#clip1_207_38)">
<path d="M2265.5 1119.33C2150.45 1174.33 2028.54 1222.93 1899.04 1239.6C1769.81 1256.1 1631.37 1236.95 1536.31 1168.81C1422.8 1087.39 1380.77 946.26 1247.99 886.783C1162.03 848.316 1056.3 852.549 956.39 851.902C856.229 851.241 747.985 841.575 680.225 783.996C558.769 680.747 628.247 477.884 494.551 385.26C406.265 324.227 272.452 341.168 156.095 327.378C8.91758 309.852 -122.966 235.242 -193.288 129.588C-263.61 23.9331 -270.833 -110.681 -212.8 -227.109" stroke="#FDCFA5" stroke-miterlimit="10"/>
<path d="M2250.19 1134.73C2135.78 1188.9 2014.08 1236.1 1885.51 1251.57C1807.95 1261 1727.02 1257.57 1654.32 1238.54C1606.83 1226.16 1562.86 1206.94 1525.45 1180.54C1412.12 1100.16 1367.52 961.86 1238.24 900.754C1192.27 879.059 1141.24 869.17 1087.61 864.546C1042.23 860.618 995.174 860.386 948.951 859.481C884.128 858.317 815.348 854.191 756.326 836.746C723.644 827.1 693.912 813.479 669.327 794.209C620.828 756.434 599.538 704.623 583.87 649.727C561.016 570.679 549.217 484.906 486.679 425.809C480.074 419.424 472.66 413.533 464.726 407.789C377.361 345.508 249.687 357.416 140.516 340.448C33.5962 323.621 -63.1806 273.778 -132.888 201.928C-153.027 181.128 -170.7 158.491 -185.946 134.378C-213.177 90.8795 -231.359 42.8817 -240.344 -6.34948C-254.014 -79.5751 -247.52 -155.338 -219.188 -223.581" stroke="#FDCFA5" stroke-miterlimit="10"/>
<path d="M2235.13 1150.36C2121.14 1203.5 1999.89 1249.3 1871.97 1263.92C1794.75 1272.84 1714.63 1269.08 1642.46 1250.08C1595.24 1237.71 1551.49 1218.85 1514.08 1192.61C1400.9 1113.47 1354.26 977.852 1228.2 915.281C1182.82 892.887 1133.25 881.272 1080.3 875.239C1035.32 870.067 988.133 868.921 941.716 867.641C876.495 865.727 807.24 861.568 747.373 845.145C714.393 836.018 684.324 823.272 658.651 804.828C608.685 769.111 584.319 720.154 565.614 667.75C538.338 592.361 520.729 509.069 457.292 449.156C450.44 442.752 443.298 436.693 435.367 430.946C348.65 367.582 227.61 374.48 125.658 353.971C25.9171 333.963 -62.822 282.24 -127.56 208.848C-146.383 187.574 -163.241 164.432 -177.674 139.813C-203.798 95.4523 -222.145 46.6913 -232.587 -3.0225C-248.194 -76.9561 -246.761 -152.537 -224.885 -219.416" stroke="#FDCFA5" stroke-miterlimit="10"/>
<path d="M2220.1 1165.8C2106.75 1218.1 1985.69 1262.5 1858.43 1276.07C1781.82 1284.31 1702.49 1280.42 1630.85 1261.44C1584.14 1249.09 1540.64 1230.43 1503.2 1204.53C1389.94 1126.43 1341 993.491 1218.13 929.638C1173.62 906.379 1125.24 893.203 1072.7 885.924C1028.12 879.506 981.025 877.64 934.203 875.61C868.582 872.945 798.6 868.738 738.136 853.355C704.609 844.732 673.972 832.668 647.67 815.442C595.986 781.772 569.027 735.886 547.055 685.785C515.129 613.868 491.676 533.426 427.608 472.535C420.757 466.129 413.638 459.886 405.729 453.956C319.677 389.332 205.011 391.199 110.481 367.521C17.6602 344.313 -62.5497 290.742 -122.804 215.6C-140.313 193.854 -156.088 170.042 -169.977 145.082C-194.976 99.6814 -213.509 50.3394 -225.159 0.161199C-242.951 -74.4921 -246.326 -149.872 -230.92 -215.198" stroke="#FFC087" stroke-miterlimit="10"/>
<path d="M2205.06 1181.27C2092.1 1232.53 1971.49 1275.52 1845.12 1288.25C1769.08 1295.98 1690.32 1291.77 1619.2 1272.81C1572.75 1260.47 1529.49 1241.99 1492.26 1216.64C1378.91 1139.59 1327.92 1009.36 1208.27 944.044C1164.35 920.087 1117.41 905.363 1065.56 896.493C1021.35 889.008 974.144 886.047 926.894 883.445C860.872 880.028 790.392 875.969 728.849 861.416C695.003 853.494 663.817 841.933 636.636 825.913C583.235 794.293 553.722 751.126 528.426 703.873C492.082 635.632 462.827 557.688 397.606 495.971C390.778 489.381 383.41 483.12 375.754 477.203C290.594 411.517 182.044 408.332 94.6963 381.288C9.03898 354.894 -62.9004 299.46 -118.426 222.586C-134.603 200.188 -149.335 176.069 -162.662 150.588C-186.557 104.329 -205.237 54.0489 -218.363 3.57343C-238.34 -71.7955 -246.269 -146.952 -237.559 -210.917" stroke="#F29137" stroke-miterlimit="10"/>
<path d="M2190.04 1196.93C2077.46 1247.34 1957.29 1288.92 1831.56 1300.61C1756.1 1307.84 1678.17 1303.13 1607.3 1284.36C1561.11 1272.03 1518.1 1253.74 1481.08 1228.76C1367.9 1152.77 1314.36 1025.22 1198.14 958.648C1154.83 933.813 1109.33 917.542 1057.88 907.424C1014.07 898.692 966.721 894.813 919.274 891.835C853.097 887.682 781.637 883.559 719.493 870.05C685.099 862.634 653.574 851.954 625.783 836.976C570.663 807.411 538.328 767.13 509.998 722.387C469.256 657.648 433.933 582.373 368.058 519.864C360.981 513.256 353.885 506.828 346.25 500.729C261.729 433.968 159.557 425.56 79.6166 395.344C0.885276 365.566 -62.5598 308.467 -113.631 230.028C-128.496 207.159 -142.147 182.372 -154.932 156.552C-177.725 109.438 -196.572 58.4008 -210.923 7.64614C-232.855 -68.2392 -245.816 -143.38 -243.547 -205.963" stroke="#F29137" stroke-miterlimit="10"/>
<path d="M2174.95 1212.4C2063 1261.96 1943.04 1301.94 1817.95 1312.77C1743.07 1319.49 1665.69 1314.45 1595.59 1295.72C1549.92 1283.42 1507.14 1265.32 1470.1 1240.69C1356.83 1165.74 1301.25 1040.92 1188.21 973.064C1145.5 947.349 1101.44 929.529 1050.39 918.162C1006.96 908.362 959.746 903.402 911.871 899.851C845.292 894.945 773.352 890.79 710.379 878.13C675.686 871.236 643.592 861.24 614.923 847.47C558.335 819.976 522.931 782.568 491.569 740.336C446.164 679.267 405.295 606.513 338.517 543.195C331.443 536.584 324.099 530.138 316.485 523.856C232.623 455.838 136.809 442.385 64.0409 408.797C-7.53713 375.828 -62.9521 316.669 -109.071 236.694C-122.625 213.353 -135.465 188.063 -147.439 161.739C-169.11 113.586 -188.143 61.9714 -203.95 10.741C-228.065 -65.858 -245.825 -140.789 -249.994 -201.989" stroke="#F29137" stroke-miterlimit="10"/>
<path d="M2159.62 1228.06C2048.07 1276.58 1928.55 1315.15 1804.34 1325.13C1730.06 1331.17 1653.48 1325.99 1583.64 1307.27C1538.23 1294.98 1495.7 1277.07 1458.86 1252.98C1345.73 1179.28 1287.9 1056.81 1178.29 987.684C1136.2 961.089 1093.55 941.898 1043.19 928.936C1000.16 917.886 952.785 912.188 904.733 908.08C837.752 902.42 765.066 898.398 701.514 886.603C666.273 880.216 633.591 871.086 604.334 858.18C546.03 832.743 508.038 798.422 473.416 758.507C423.62 700.945 376.939 630.878 309.011 566.734C301.957 559.941 294.615 553.492 287.004 547.207C203.782 478.111 114.341 459.427 48.9735 422.66C-15.6848 386.301 -62.6136 325.472 -104.262 243.746C-116.487 219.753 -128.286 194.154 -139.679 167.129C-160.248 118.117 -179.179 65.5797 -196.46 14.0528C-222.506 -63.2454 -245.293 -138.162 -255.915 -197.798" stroke="#F29137" stroke-miterlimit="10"/>
<path d="M2144.58 1243.54C2033.41 1291.19 1914.33 1328.35 1790.77 1337.29C1716.82 1342.8 1641.04 1337.31 1571.97 1318.63C1526.81 1306.54 1484.78 1288.65 1447.66 1264.9C1334.45 1192.25 1274.59 1072.32 1168.14 1002.1C1126.63 974.803 1085.19 953.865 1035.48 939.668C992.832 927.548 945.336 920.751 896.856 916.07C829.472 909.656 756.306 905.601 691.656 894.821C656.116 888.957 622.866 880.514 592.731 868.818C532.711 845.442 491.902 814.016 454.251 776.617C399.797 722.732 347.326 655.178 278.744 590.241C271.693 583.445 264.372 576.813 256.783 570.346C174.467 500.008 90.8955 476.058 33.1517 436.307C-24.8417 396.54 -63.0407 334.058 -100.242 250.764C-111.157 226.299 -121.877 200.032 -132.73 172.667C-152.198 122.797 -171.295 69.5018 -190.03 17.5C-218.257 -60.5106 -245.838 -135.213 -262.891 -193.462" stroke="#F29137" stroke-miterlimit="10"/>
<path d="M2129.52 1259.05C2018.99 1305.66 1899.85 1341.39 1777.18 1349.47C1703.8 1354.48 1628.59 1348.66 1560.04 1330.01C1515.39 1317.94 1473.33 1300.4 1436.46 1276.84C1323.16 1205.25 1261.25 1088.04 1158.01 1016.35C1117.11 988.177 1077.1 965.686 1027.81 950.056C985.558 936.685 938.173 928.984 889.267 923.729C821.482 916.56 747.838 912.474 682.342 902.725C646.255 897.369 612.418 889.793 581.925 879.159C520.191 857.843 476.567 829.314 435.891 794.432C377.051 744.062 318.774 679.2 249.293 613.452C241.994 606.638 234.695 599.823 227.357 593.369C145.681 521.951 68.4953 492.582 17.8737 449.811C-33.1881 406.468 -62.9108 342.312 -95.4165 257.462C-105.023 232.524 -114.934 205.752 -124.977 177.881C-143.344 127.151 -162.608 73.0963 -182.546 20.6333C-212.952 -58.0926 -245.323 -132.584 -268.803 -189.446" stroke="#F29137" stroke-miterlimit="10"/>
<path d="M2114.48 1274.71C2004.34 1320.47 1885.64 1354.78 1763.86 1361.83C1691.08 1366.15 1616.67 1360.02 1548.37 1341.55C1503.98 1329.49 1462.17 1312.15 1425.49 1289.13C1312.35 1218.61 1248.43 1103.96 1148.09 1031.16C1108.04 1002.11 1069.22 978.052 1020.58 961.186C978.725 946.562 931.181 938.121 882.098 932.308C813.91 924.384 739.538 920.25 673.443 911.55C637.058 906.717 602.633 900.01 571.284 890.407C507.836 871.155 461.647 845.541 417.696 813.165C354.203 766.479 290.143 704.135 219.741 637.758C212.463 630.76 205.166 623.943 197.601 617.29C116.581 544.614 45.507 509.986 2.52082 464.045C-41.6342 417.305 -62.8861 351.477 -90.9298 264.876C-99.2093 239.285 -108.061 212.024 -117.564 183.813C-134.812 132.044 -154.243 77.2308 -175.653 24.473C-207.988 -54.95 -245.397 -129.242 -275.301 -184.715" stroke="#FDCFA5" stroke-miterlimit="10"/>
<path d="M2099.45 1290.21C1989.7 1334.92 1871.43 1367.82 1750.29 1374C1678.09 1377.82 1604.24 1371.35 1536.7 1352.93C1492.58 1340.88 1451.26 1323.74 1414.55 1301.07C1301.33 1231.61 1235.4 1119.33 1138.2 1045.6C1098.76 1015.68 1061.37 990.06 1013.15 971.759C971.672 956.063 924.009 946.52 874.749 940.148C806.409 931.484 731.291 927.483 664.369 919.635C627.437 915.311 592.695 909.308 560.47 900.918C495.311 883.732 446.31 861.019 399.336 831.165C331.213 787.985 261.585 728.536 190.302 661.167C183.027 654.167 175.482 647.331 168.187 640.511C87.806 566.755 23.1295 526.517 -12.7625 477.733C-49.7254 427.246 -62.7796 359.908 -86.1532 271.93C-93.1255 245.866 -100.92 218.115 -109.863 189.383C-126.012 136.753 -145.608 81.1796 -168.22 27.9611C-202.732 -52.1768 -244.926 -126.256 -281.25 -180.337" stroke="#FDCFA5" stroke-miterlimit="10"/>
<path d="M2084.38 1305.9C1975.26 1349.75 1857.18 1381.23 1736.68 1386.36C1665.06 1389.67 1592.02 1382.89 1524.75 1364.47C1480.89 1352.44 1439.81 1335.49 1403.32 1313.19C1290.24 1244.98 1222.07 1135.06 1128.04 1060.05C1089.21 1029.24 1053.25 1002.07 1005.42 982.511C964.346 965.561 916.794 955.112 866.839 948.33C798.098 938.91 722.252 934.861 654.484 928.047C617.006 924.233 581.678 919.099 548.846 911.759C481.726 896.623 430.164 876.831 380.169 849.502C307.398 810.012 231.993 753.084 160.06 684.921C152.537 677.902 145.264 670.899 137.99 663.895C58.4955 589.075 0.212435 543.224 -28.5898 491.595C-58.6339 437.524 -63.2458 368.691 -82.1622 278.959C-87.8087 252.242 -94.7946 223.985 -102.949 194.927C-118 141.437 -137.763 85.1043 -161.825 31.4098C-198.513 -49.442 -245.49 -123.306 -288.23 -175.995" stroke="#FDCFA5" stroke-miterlimit="10"/>
<path d="M2069.1 1321.41C1960.38 1364.22 1842.75 1394.27 1723.13 1398.56C1652.11 1401.18 1579.6 1394.24 1513.1 1375.87C1469.75 1363.86 1428.91 1347.1 1392.37 1325.34C1279.21 1258.19 1209.26 1150.83 1118.14 1074.7C1079.94 1042.83 1045.37 1014.46 998.233 993.304C957.552 975.099 909.862 963.728 859.731 956.386C790.589 946.209 714.268 942.128 645.655 936.35C607.88 933.06 571.985 928.616 538.548 922.326C469.698 909.439 415.348 892.374 362.334 867.571C285.188 831.609 203.992 777.384 130.911 708.394C123.41 701.191 116.138 694.185 108.867 687.179C30.0292 611.096 -21.8829 559.809 -43.3499 505.346C-66.2102 447.523 -62.6338 377.178 -77.1149 285.87C-81.4558 258.678 -87.385 229.931 -94.9802 200.351C-108.914 145.818 -128.843 88.7242 -154.144 34.9299C-192.757 -46.6217 -244.763 -120.287 -293.935 -171.402" stroke="#FFD3BD" stroke-miterlimit="10"/>
<path d="M2054.07 1336.94C1945.72 1378.87 1828.55 1407.33 1709.56 1410.75C1638.86 1412.84 1567.19 1405.41 1501.18 1387.24C1458.09 1375.25 1417.49 1358.68 1380.93 1337.27C1267.92 1271.19 1195.98 1166.22 1107.74 1089.15C1070.39 1056.41 1037 1026.47 990.267 1004.05C949.963 984.772 902.134 972.478 851.846 964.395C782.303 953.461 705.236 949.513 636.047 944.606C597.726 941.826 561.246 938.253 527.202 933.014C456.644 922.198 399.486 908.041 343.435 885.949C261.647 853.683 174.93 802.001 100.951 732.199C93.4516 724.994 85.9525 717.789 78.9516 710.615C0.750164 633.451 -44.5268 576.557 -59.1417 519.049C-74.842 457.651 -63.0821 385.794 -72.8817 292.926C-75.9177 265.26 -80.7711 235.842 -87.8274 205.921C-100.664 150.526 -120.759 92.6725 -147.51 38.4021C-188.296 -43.8638 -245.079 -117.313 -300.66 -167.032" stroke="#FFD3BD" stroke-miterlimit="10"/>
<path d="M2039 1352.64C1931.3 1393.54 1814.3 1420.74 1695.96 1423.11C1625.84 1424.69 1554.97 1416.95 1489.25 1398.6C1446.42 1386.62 1406.06 1370.24 1369.72 1349.2C1256.63 1284.19 1182.7 1181.59 1097.6 1103.42C1060.86 1069.79 1028.65 1038.27 982.565 1014.62C942.658 994.08 894.941 980.877 844.208 972.399C774.265 960.707 696.722 956.727 626.69 952.856C588.052 950.784 551.007 947.901 516.109 943.698C443.844 934.954 384.13 923.726 324.815 904.149C238.389 875.581 145.907 826.427 71.2788 755.828C63.5328 748.605 56.3042 741.232 49.0562 734.04C-28.2398 655.628 -67.1534 593.288 -74.6905 532.927C-82.9664 467.787 -63.2768 394.399 -68.6463 299.954C-70.3587 271.632 -74.1759 241.903 -80.6545 211.279C-92.3749 154.84 -112.655 96.4058 -140.605 41.6742C-183.563 -41.3074 -245.12 -114.541 -307.354 -162.879" stroke="#FDCFA5" stroke-miterlimit="10"/>
<path d="M2023.97 1368.16C1916.65 1408.19 1800.11 1433.8 1682.4 1435.29C1612.85 1436.37 1542.54 1428.29 1477.59 1409.99C1435.27 1398.03 1395.15 1381.84 1358.76 1361.34C1245.84 1297.4 1169.91 1197.19 1087.7 1118.07C1051.81 1083.58 1020.78 1050.48 975.36 1025.4C935.85 1003.6 887.995 989.475 837.086 980.436C766.745 967.986 688.478 963.958 617.622 960.944C578.44 959.383 541.059 957.389 505.308 954.222C431.317 947.733 368.82 939.238 306.492 922.194C215.45 897.148 117.436 850.721 41.6629 779.293C33.9191 772.066 26.4436 764.675 19.4661 757.315C-57.193 677.819 -89.2492 610.06 -90.1912 546.631C-91.0664 477.926 -63.2029 403.021 -64.1256 306.816C-64.5347 278.019 -67.2775 247.618 -73.2176 216.651C-83.842 159.349 -104.02 99.9874 -133.436 44.9594C-178.315 -38.7228 -244.892 -111.756 -313.527 -158.697" stroke="#FDCFA5" stroke-miterlimit="10"/>
<path d="M2008.91 1383.69C1901.99 1422.67 1785.87 1447.03 1669.05 1447.49C1600.11 1447.88 1530.58 1439.66 1465.9 1421.37C1423.82 1409.61 1383.95 1393.61 1347.8 1373.29C1234.77 1310.6 1157.11 1212.61 1077.8 1132.37C1042.54 1096.8 1012.92 1062.33 967.895 1035.98C928.781 1012.93 880.769 998.059 829.456 988.262C758.963 975.068 679.974 970.993 608.275 969.018C568.797 967.983 530.662 966.122 494.478 964.749C418.646 961.602 353.484 954.756 288.145 940.248C192.719 918.923 88.6983 875.013 12.2781 802.787C4.55599 795.377 -2.91722 787.983 -9.87325 780.439C-85.8765 699.678 -111.328 626.48 -105.201 560.193C-98.6798 487.92 -62.8769 411.301 -59.3944 313.697C-58.2521 284.44 -60.1895 253.532 -65.572 222.041C-75.1011 163.875 -95.4442 103.751 -126.307 48.2454C-173.355 -36.1533 -244.7 -108.97 -319.731 -154.511" stroke="#FDCFA5" stroke-miterlimit="10"/>
<path d="M1993.88 1399.4C1887.58 1437.52 1771.67 1460.27 1655.49 1459.86C1587.12 1459.73 1518.17 1451.01 1454.24 1432.94C1412.42 1421.18 1372.78 1405.38 1336.83 1385.61C1223.73 1323.98 1144.57 1228.41 1067.89 1147.21C1033.48 1110.77 1005.04 1074.72 960.434 1046.93C921.697 1022.8 873.817 1006.84 822.06 996.643C751.17 982.69 671.438 978.749 599.166 977.647C559.145 977.124 520.616 976.696 483.658 975.638C406.239 973.482 338.143 970.822 269.814 958.671C169.76 941.053 60.234 899.693 -17.0812 826.653C-25.0498 819.225 -32.2526 811.663 -39.2066 804.116C-114.573 722.269 -133.176 643.643 -120.193 574.118C-106.281 498.274 -62.5627 420.12 -54.6388 320.753C-52.1754 290.839 -53.3078 259.422 -57.9038 227.605C-66.3187 168.392 -86.8469 107.686 -118.906 51.7181C-168.141 -33.2168 -243.982 -105.982 -325.654 -150.139" stroke="#FDCFA5" stroke-miterlimit="10"/>
<path d="M1978.58 1414.95C1872.68 1452.02 1757.18 1473.52 1641.65 1472.06C1573.86 1471.42 1505.47 1462.36 1442.05 1444.32C1400.74 1432.59 1361.35 1416.98 1325.37 1397.57C1212.43 1337.01 1131.28 1243.83 1057.47 1161.69C1023.93 1124.2 996.655 1086.74 952.695 1057.71C914.355 1032.32 866.337 1015.43 814.405 1004.68C743.116 989.964 662.91 985.99 589.797 985.929C549.48 985.934 510.119 986.364 472.558 986.361C393.417 986.466 322.542 986.546 251.206 976.934C146.545 962.847 31.4777 924.403 -46.9618 850.352C-54.9281 842.921 -62.3582 835.159 -69.2908 827.429C-143.773 744.513 -155.779 660.439 -136.214 587.84C-114.665 508.438 -63.0177 428.568 -50.6745 327.62C-46.9102 297.23 -46.9891 265.321 -51.0283 232.979C-58.3493 172.901 -79.0236 111.251 -112.546 54.9874C-163.699 -30.648 -244.552 -103.21 -332.613 -145.965" stroke="#FDCFA5" stroke-miterlimit="10"/>
<path d="M1963.54 1430.67C1858.02 1466.86 1742.99 1486.76 1628.33 1484.44C1560.89 1483.09 1493.53 1473.91 1430.38 1455.88C1389.33 1444.16 1350.18 1428.74 1314.17 1409.68C1201.15 1350.2 1118.51 1259.44 1047.34 1176.15C1014.66 1137.79 988.556 1098.76 945.013 1068.28C907.069 1041.63 858.913 1023.81 806.787 1012.68C735.08 997.383 654.172 993.181 580.466 994.176C539.606 994.694 499.912 996.015 461.499 997.052C380.657 999.238 307.235 1002.26 232.644 995.172C123.608 984.815 2.54515 948.894 -76.5398 874.045C-84.4844 866.43 -91.9124 858.665 -98.843 850.932C-172.671 766.749 -177.855 677.421 -151.462 601.76C-122.551 518.964 -62.978 437.377 -46.2183 334.845C-41.1344 303.797 -40.1802 271.577 -43.663 238.711C-49.8906 177.768 -70.7303 115.354 -105.448 58.6281C-158.766 -27.724 -244.378 -100.068 -338.823 -141.419" stroke="#FDCFA5" stroke-miterlimit="10"/>
<path d="M1948.53 1446.24C1843.64 1481.57 1728.81 1499.85 1614.78 1496.65C1547.91 1494.8 1481.11 1485.28 1418.72 1467.29C1377.93 1455.59 1339.27 1440.37 1303.22 1421.85C1190.34 1363.63 1105.74 1275.09 1037.44 1190.85C1005.63 1151.44 980.681 1111 937.535 1079.27C899.986 1051.35 851.923 1032.8 799.144 1020.89C727.039 1004.84 645.639 1000.78 570.864 1002.62C529.46 1003.65 489.432 1005.87 450.417 1007.96C367.855 1012.41 291.639 1018.36 214.064 1013.63C100.388 1007.17 -26.1502 973.63 -106.129 897.966C-114.32 890.333 -121.497 882.581 -128.387 874.483C-201.58 789.213 -199.927 694.445 -166.959 615.706C-130.67 529.331 -63.1773 446.025 -41.755 341.925C-35.3718 310.4 -33.3464 277.505 -36.2924 244.296C-41.408 182.306 -62.4325 119.309 -98.5931 62.1063C-154.075 -24.9626 -244.443 -97.0874 -345.269 -137.033" stroke="#FDCFA5" stroke-miterlimit="10"/>
<path d="M1933.51 1461.78C1829.01 1496.05 1714.6 1513.09 1601.23 1508.84C1534.93 1506.47 1468.96 1496.46 1406.82 1478.65C1366.54 1466.98 1327.87 1451.94 1292.04 1433.8C1179.07 1376.64 1092.98 1290.52 1027.3 1205.33C996.095 1165.03 972.575 1123.02 930.095 1089.85C892.942 1060.67 844.742 1041.2 791.79 1028.72C719.287 1011.9 637.167 1007.8 561.802 1010.7C520.104 1012.26 479.246 1015.34 439.63 1018.49C355.35 1025.2 276.362 1033.89 195.787 1031.72C77.4939 1028.98 -54.7834 997.98 -135.654 921.5C-143.843 913.864 -151.247 905.912 -157.886 897.827C-230.424 811.288 -222.207 711.241 -182.153 629.269C-138.262 539.51 -62.8543 454.481 -37.2503 348.599C-29.5688 316.597 -26.7405 283.192 -28.8823 249.474C-32.9059 186.616 -54.0758 122.673 -91.4683 65.3704C-148.863 -22.4008 -244.233 -94.3224 -351.435 -132.862" stroke="#FDCFA5" stroke-miterlimit="10"/>
<path d="M1918.45 1477.53C1814.58 1510.94 1700.38 1526.36 1587.88 1521.25C1522.16 1518.37 1456.75 1508.02 1395.37 1490.26C1355.35 1478.59 1316.93 1463.75 1281.31 1445.97C1168.52 1389.9 1080.69 1306.2 1017.65 1219.86C987.561 1178.52 964.948 1135.09 922.866 1100.66C886.089 1070.39 838.02 1049.82 784.626 1036.95C711.975 1019.39 629.135 1015.24 552.932 1019.18C510.693 1021.26 469.502 1025.22 429.056 1029.24C343.059 1038.22 261.55 1049.67 177.727 1050.03C55.0895 1050.85 -82.9416 1022.58 -164.704 945.281C-172.871 937.46 -180.273 929.506 -187.139 921.22C-258.794 833.608 -243.997 728.096 -197.128 643.056C-145.869 549.711 -62.3234 463.158 -32.5599 355.672C-23.3129 323.026 -19.6827 289.112 -21.2691 254.868C-24.2014 191.143 -45.5361 126.435 -84.3692 68.6531C-143.925 -19.8363 -244.044 -91.5387 -357.636 -128.489" stroke="#FDCFA5" stroke-miterlimit="10"/>
<path d="M1903.45 1493.09C1799.98 1525.45 1686.21 1539.61 1574.35 1533.45C1509.23 1529.87 1444.35 1519.37 1383.49 1501.63C1343.73 1489.98 1305.77 1475.53 1270.13 1458.11C1157.25 1403.11 1067.95 1321.65 1007.52 1234.53C978.278 1192.32 956.84 1147.31 915.402 1111.62C879.021 1080.09 830.796 1058.77 777.247 1045.16C704.199 1026.83 620.62 1022.82 543.847 1027.64C501.314 1030.24 459.561 1034.9 418.246 1040.14C330.554 1051.21 246.256 1065.6 159.417 1068.69C32.168 1073.23 -111.347 1047.53 -194.001 969.415C-202.165 961.591 -209.794 953.437 -216.41 945.164C-287.411 856.282 -265.83 745.682 -212.38 657.374C-153.776 560.624 -62.3062 472.166 -27.8888 363.109C-17.3451 329.985 -12.6644 295.577 -13.6959 260.808C-15.5182 196.033 -37.0374 130.741 -77.0622 72.4977C-138.778 -16.7092 -243.643 -88.1909 -363.604 -123.732" stroke="#FDCFA5" stroke-miterlimit="10"/>
<path d="M1888.14 1508.85C1785.04 1540.33 1671.73 1552.88 1560.5 1545.84C1495.95 1541.75 1431.87 1530.93 1371.28 1513.2C1331.77 1501.75 1294.07 1487.3 1258.65 1470.26C1145.94 1416.34 1055.15 1337.32 997.103 1249.04C968.735 1205.76 948.432 1159.53 907.43 1122.21C871.443 1089.42 823.082 1067.17 769.112 1052.97C695.668 1033.88 611.619 1029.84 533.78 1035.51C490.706 1038.63 448.621 1044.18 406.707 1050.48C317.529 1064.02 230.237 1080.96 140.404 1086.6C8.56704 1094.7 -140.694 1071.72 -224.239 992.793C-232.649 984.951 -240.007 976.628 -246.621 968.352C-316.988 878.38 -288.588 762.323 -228.332 670.941C-162.161 570.98 -62.7721 480.615 -24.1813 369.771C-12.3418 336.169 -6.84093 301.069 -7.08885 265.971C-7.82136 200.327 -29.5051 134.269 -70.9687 75.5471C-134.594 -14.3628 -244.45 -85.6397 -370.774 -119.771" stroke="#FDCFA5" stroke-miterlimit="10"/>
<path d="M1873.13 1524.43C1711.08 1572.47 1522.92 1572.61 1359.64 1524.61C1196.35 1476.61 1060.16 1380.78 987.477 1263.58C959.979 1219.25 940.83 1171.6 900.224 1133.02C816.326 1052.94 661.361 1032.34 524.94 1043.98C388.768 1055.64 258.816 1093.29 122.376 1105.12C-13.8154 1116.96 -168.8 1096.54 -253.233 1016.79C-351.488 923.737 -316.537 788.31 -243.279 684.922C-169.755 581.368 -62.4924 489.457 -19.2541 377.038C18.462 278.893 2.37232 169.843 -63.4086 79.214C-129.19 -11.4149 -243.785 -82.471 -376.468 -115.19" stroke="#FF7E07" stroke-miterlimit="10"/>
<path d="M1829.41 1530.14C1668.7 1576.67 1483.12 1575.51 1322.56 1526.89C1162 1478.28 1027.61 1383.18 957.41 1266.55C930.055 1221.07 912.872 1171.49 873.93 1131.68C794.923 1050.9 645.537 1028.61 513.86 1036.91C382.432 1045.23 255.56 1078.72 121.02 1088.12C-15.2937 1097.77 -171.075 1079.28 -258.117 1001.29C-358.775 910.535 -330.161 775.461 -259.118 670.896C-188.076 566.331 -78.3907 473.918 -32.0405 364.492C7.9921 269.855 -6.05136 165.015 -66.6038 77.3556C-127.156 -10.3041 -234.772 -80.27 -362.263 -113.615" stroke="#FF7E07" stroke-miterlimit="10"/>
<path d="M1785.49 1535.67C1626.38 1580.52 1443.11 1578.22 1285.01 1529.15C1126.9 1480.08 994.593 1385.38 927.133 1269.33C899.941 1222.53 884.929 1171.37 847.648 1130.35C773.752 1049.07 629.71 1024.89 503.018 1029.85C376.097 1034.61 252.283 1064.12 119.624 1071.27C-16.789 1078.54 -173.647 1062.35 -263.27 985.929C-366.592 897.649 -343.768 762.6 -275.472 657.19C-207.175 551.78 -95.0563 458.682 -45.3734 352.456C-2.80194 261.535 -15.0119 160.538 -70.345 75.8557C-125.926 -8.84201 -226.325 -77.6987 -348.632 -111.67" stroke="#FF7E07" stroke-miterlimit="10"/>
<path d="M1741.81 1541.39C1584.07 1584.55 1403.39 1580.94 1247.72 1531.6C1092.06 1482.26 962.099 1387.78 897.126 1272.3C870.096 1224.17 857.253 1171.44 821.403 1128.99C752.363 1047.19 614.136 1021.34 491.949 1022.74C369.763 1024.14 249.006 1049.66 118.003 1054.35C-18.2532 1059.25 -176.425 1045.34 -268.37 970.519C-374.325 884.535 -357.3 749.693 -291.747 643.435C-226.195 537.177 -111.427 443.589 -58.3831 340.204C-13.7947 253.157 -23.4319 156.058 -73.7819 74.1613C-124.151 -7.55295 -217.611 -75.1323 -334.719 -109.914" stroke="#FF7E07" stroke-miterlimit="10"/>
<path d="M1697.84 1547.13C1541.69 1588.79 1363.11 1583.84 1210.17 1533.88C1057.24 1483.92 929.363 1389.83 866.855 1275.1C839.99 1225.64 829.289 1171.52 794.889 1127.46C730.679 1045.32 598.052 1017.4 480.615 1015.25C363.178 1013.09 245.478 1034.61 116.115 1037.03C-20.4912 1039.71 -179.184 1027.77 -273.955 954.697C-382.531 871.016 -371.311 736.564 -308.482 629.274C-245.406 521.999 -128.533 428.252 -72.139 327.714C-25.2744 244.384 -32.8386 151.158 -77.9862 72.2515C-123.134 -6.65534 -209.664 -72.9551 -321.579 -108.549" stroke="#FFA14A" stroke-miterlimit="10"/>
<path d="M1654.24 1552.69C1499.47 1592.65 1323.45 1586.57 1173.23 1536.17C1023.01 1485.77 897.22 1392.07 837.173 1278.1C810.473 1227.31 801.684 1171.59 768.939 1126.29C709.551 1043.81 582.519 1013.83 469.806 1008.3C357.093 1002.76 242.242 1019.89 114.749 1020.22C-21.9321 1020.51 -181.402 1010.71 -278.74 939.414C-389.676 858.057 -384.724 723.783 -324.141 615.672C-263.805 507.545 -144.555 413.288 -84.5746 315.619C-35.6886 235.997 -40.9568 146.854 -80.9119 70.9432C-120.867 -4.9675 -200.461 -70.1677 -306.961 -106.378" stroke="#FFA14A" stroke-miterlimit="10"/>
<path d="M1610.31 1558.43C1457.16 1596.7 1283.48 1589.47 1135.75 1538.44C988.007 1487.4 864.805 1394.12 806.972 1280.9C780.438 1228.77 773.783 1171.64 742.73 1124.75C687.889 1042.09 566.938 1010.07 458.717 1000.95C350.742 991.844 238.946 1004.96 113.1 1002.99C-23.6291 1000.71 -183.902 993.418 -284.021 923.701C-397.553 844.66 -398.36 710.596 -340.495 601.449C-282.631 492.301 -161.548 397.867 -97.995 303.072C-47.3612 227.334 -49.8073 141.948 -84.827 69.0243C-119.847 -3.89942 -192.29 -67.7996 -293.609 -104.827" stroke="#FFA14A" stroke-miterlimit="10"/>
<path d="M1566.58 1564.22C1414.72 1600.76 1243.53 1592.4 1098.18 1540.93C952.828 1489.45 832.162 1396.46 776.509 1284.03C750.129 1230.59 745.354 1172.07 715.954 1123.77C665.606 1041.16 550.453 1006.73 447.132 994.231C343.565 981.718 234.798 990.426 110.777 986.186C-26.0904 981.493 -187.455 976.34 -289.927 908.452C-405.859 831.782 -412.676 698.165 -357.492 588.035C-302.308 477.906 -179.106 383.543 -111.913 291.312C-59.5072 219.504 -59.4015 138.091 -89.2466 68.0278C-119.111 -1.85277 -184.434 -64.6045 -280.901 -102.268" stroke="#FFA14A" stroke-miterlimit="10"/>
<path d="M1522.57 1569.8C1372.23 1604.79 1203.27 1595.1 1060.54 1543.21C917.81 1491.32 799.421 1398.6 745.943 1286.99C719.714 1232.23 717.044 1172.52 689.086 1122.44C642.973 1039.87 533.848 1003.03 435.167 987.138C336.259 971.045 229.707 980.637 108.016 969.17C-28.4043 956.393 -191.219 959.07 -296.538 892.986C-414.874 818.697 -427.675 685.354 -374.936 574.449C-322.197 463.544 -197.323 368.863 -126.038 279.603C-71.8392 211.553 -69.1849 134.126 -93.9032 67.2968C-118.602 0.284886 -177.105 -60.9627 -268.468 -99.4282" stroke="#FFA14A" stroke-miterlimit="10"/>
<path d="M1478.81 1575.61C1329.76 1608.86 1163.03 1598.01 1022.93 1545.52C882.569 1493.2 766.702 1400.77 715.377 1290.15C689.298 1234.07 688.504 1172.97 662.193 1121.5C620.311 1038.96 517.433 999.919 423.178 980.242C328.904 960.748 224.836 966.262 105.221 952.339C-31.2876 936.598 -195.011 941.985 -302.928 877.724C-423.909 805.804 -442.437 672.753 -392.388 561.057C-342.338 449.361 -215.569 354.561 -140.424 268.077C-84.7003 203.957 -79.009 130.55 -98.8149 66.578C-118.621 2.60582 -170.028 -57.4864 -256.313 -96.5721" stroke="#FFA14A" stroke-miterlimit="10"/>
<path d="M1434.82 1581.39C1287.04 1612.89 1122.78 1600.9 985.054 1547.98C847.328 1495.06 733.962 1403.1 684.56 1293.28C658.879 1235.91 659.691 1173.58 635.309 1120.35C597.634 1038.04 500.789 996.408 411.162 973.324C321.536 950.24 221.034 946.021 102.391 935.474C-35.3656 923.15 -198.852 925.049 -309.586 862.415C-432.961 792.882 -457.701 660.093 -410.091 547.621C-362.482 435.149 -234.314 340.198 -154.806 256.341C-97.8064 196.14 -89.0634 126.576 -103.737 65.6627C-118.41 4.74918 -162.977 -54.2026 -244.189 -93.9094" stroke="#FFA14A" stroke-miterlimit="10"/>
<path d="M1391.08 1587.01C1244.83 1616.79 1082.81 1603.45 947.429 1550.28C812.051 1497.11 701.221 1405.27 653.985 1296.25C628.455 1237.56 630.872 1174.02 608.417 1119.03C574.714 1036.74 484.365 992.732 399.115 966.222C314.11 939.728 216.616 931.084 99.7611 918.429C-38.1185 903.505 -202.47 907.75 -315.811 847.128C-441.557 779.804 -472.291 647.662 -427.345 534.216C-382.398 420.77 -252.608 325.868 -169.008 244.81C-110.715 188.35 -98.9624 123 -108.511 65.1494C-118.059 7.29859 -155.815 -50.3277 -231.942 -90.8397" stroke="#FFA14A" stroke-miterlimit="10"/>
<path d="M1347.04 1592.82C1202.07 1621.03 1042.53 1606.38 909.785 1552.6C777.042 1498.83 668.731 1407.27 623.396 1299.24C598.263 1239.25 602.282 1174.47 581.487 1117.9C551.47 1035.98 467.63 989.402 387.264 959.31C306.898 929.218 212.166 916.126 97.1036 901.361C-41.118 883.635 -206.099 890.429 -322.017 831.638C-450.141 766.707 -486.822 634.843 -444.292 520.434C-401.762 406.026 -271.096 311.122 -182.658 232.726C-123.587 180.162 -108.056 118.71 -112.732 63.908C-117.408 9.10568 -148.095 -47.3636 -219.161 -88.4995" stroke="#FFA14A" stroke-miterlimit="10"/>
<path d="M1303.33 1598.43C1159.88 1624.91 1002.56 1609.1 872.183 1554.89C741.803 1500.68 636.25 1409.43 593.078 1302.22C568.114 1240.72 573.714 1174.9 554.839 1116.57C528.521 1034.84 451.179 985.697 375.423 952.186C299.422 918.659 207.709 900.947 94.4156 884.254C-43.9245 863.922 -209.517 873.084 -328.501 816.096C-459.004 753.564 -501.621 621.983 -461.768 506.782C-421.915 391.582 -290.106 296.512 -197.101 220.952C-136.986 172.122 -118.211 114.91 -117.757 62.9929C-117.304 11.0762 -141.199 -44.0657 -207.213 -85.8254" stroke="#FFA14A" stroke-miterlimit="10"/>
<path d="M1259.34 1604.25C1117.18 1628.98 962.074 1612 834.302 1557.37C706.529 1502.75 603.506 1411.61 562.209 1305.56C537.641 1242.76 544.348 1175.68 527.863 1115.8C505.237 1034.26 434.63 982.563 363.252 945.43C291.875 908.296 202.914 886.126 91.3882 867.503C-47.2937 844.363 -213.513 856.079 -335.065 800.929C-467.921 740.615 -516.749 609.67 -479.305 493.509C-441.86 377.348 -309.404 282.08 -211.596 209.374C-150.931 164.251 -128.407 111.131 -122.87 62.4697C-117.314 13.6251 -134.427 -40.1883 -195.356 -82.9404" stroke="#FFA14A" stroke-miterlimit="10"/>
<path d="M1215.6 1610.08C1074.94 1633.25 922.07 1614.92 796.677 1559.68C671.284 1504.44 571.24 1413.81 531.61 1308.55C507.438 1244.44 515.475 1176.3 500.924 1114.47C481.722 1033.29 417.839 979.036 351.078 938.291C284.318 897.546 198.107 870.914 88.3474 850.358C-50.6737 824.407 -217.497 838.497 -341.875 785.356C-477.096 727.446 -531.842 596.788 -496.823 479.849C-462.048 362.896 -328.928 267.246 -225.855 197.613C-164.377 156.032 -138.393 107.36 -127.743 61.5911C-117.092 15.8218 -127.415 -36.846 -183.306 -80.2243" stroke="#FFA14A" stroke-miterlimit="10"/>
<path d="M1171.61 1615.7C1032.24 1637.12 881.828 1617.64 759.039 1561.98C636.25 1506.32 538.731 1415.8 500.992 1311.53C477.234 1245.93 486.355 1176.7 473.96 1113.13C458.196 1032.12 401.027 975.307 338.859 931.13C276.691 886.954 193.264 855.485 85.2517 833.178C-53.8413 804.245 -221.546 821.065 -348.479 769.766C-486.04 714.081 -546.711 583.893 -514.358 466.162C-481.987 348.246 -348.452 252.198 -240.37 185.624C-178.571 147.558 -148.399 103.387 -132.888 60.4963C-117.396 17.7895 -120.713 -33.5325 -171.309 -77.7063" stroke="#FFA14A" stroke-miterlimit="10"/>
<path d="M1127.9 1621.54C990.061 1641.21 841.86 1620.57 721.426 1564.48C600.993 1508.38 506.465 1418.19 470.388 1314.71C447.024 1247.8 457.245 1177.31 446.985 1112.17C434.653 1031.34 384.432 971.974 326.847 924.362C269.282 876.567 188.841 840.641 82.3475 816.381C-56.8368 784.648 -225.402 804.016 -355.131 754.547C-495.046 701.274 -561.633 571.561 -531.905 452.669C-502.177 333.777 -368.209 237.147 -254.675 174.037C-192.311 139.506 -158.427 99.625 -137.857 60.0001C-117.286 20.3751 -113.835 -29.7992 -159.407 -74.6009" stroke="#FFA14A" stroke-miterlimit="10"/>
<path d="M1084.19 1627.39C947.637 1645.31 801.892 1623.52 683.833 1566.8C565.774 1510.08 473.991 1420.2 439.781 1317.9C416.83 1249.5 427.867 1178.09 420.264 1111.05C411.095 1030.56 367.812 968.64 314.824 917.405C261.837 866.169 184.173 825.396 79.4436 799.197C-60.0523 764.46 -229.246 786.58 -361.516 738.96C-503.758 687.918 -576.493 558.663 -549.18 438.993C-521.867 319.323 -387.923 221.71 -268.968 162.249C-206.511 131.042 -168.473 95.8545 -142.815 59.1298C-117.4 22.3894 -106.966 -26.4372 -147.522 -71.8684" stroke="#FFA14A" stroke-miterlimit="10"/>
<path d="M1040.22 1633.03C904.928 1649.37 761.675 1626.06 645.95 1569.09C530.469 1512.13 441.465 1422.2 408.894 1320.87C386.337 1251.16 398.227 1178.47 392.994 1109.87C387.002 1029.54 350.889 965.082 302.247 910.202C253.605 855.323 178.94 809.898 75.953 781.942C-63.6083 744.214 -233.407 768.905 -368.72 723.289C-513.283 674.481 -591.91 545.703 -567.008 425.255C-542.351 304.791 -408.413 206.01 -283.804 150.218C-220.992 122.169 -178.807 91.681 -148.332 58.0279C-117.857 24.3749 -100.697 -23.1187 -136.226 -69.3645" stroke="#FFA14A" stroke-miterlimit="10"/>
<path d="M996.541 1638.89C862.534 1653.46 721.489 1628.98 608.358 1571.59C495.247 1514.02 409.224 1424.41 378.29 1324.06C356.389 1252.86 368.623 1179.05 366.019 1108.73C362.955 1028.54 333.999 961.534 289.921 903.206C245.842 844.879 174.189 794.612 72.944 764.898C-66.6618 723.991 -237.344 751.609 -375.185 707.847C-522.062 661.276 -606.571 532.978 -584.32 411.736C-562.07 290.494 -428.346 190.16 -297.908 138.609C-234.743 113.723 -188.681 88.1066 -153.155 57.5438C-117.628 26.9811 -93.7345 -19.363 -124.264 -66.2403" stroke="#FFA14A" stroke-miterlimit="10"/>
<path d="M952.577 1644.73C820.098 1657.55 681.261 1631.9 570.742 1573.91C460.223 1515.91 376.935 1426.62 347.655 1327.06C326.147 1254.55 339.229 1179.45 338.987 1107.57C338.845 1027.53 317.016 958.159 277.512 896.195C238.009 834.23 169.364 779.117 69.5976 747.81C-70.0681 703.907 -241.589 734.086 -382.212 692.35C-531.396 648.02 -621.792 520.386 -602.17 398.165C-582.549 275.945 -449.024 173.871 -312.789 126.75C-249.254 104.845 -199.323 84.1055 -158.755 56.6358C-118.43 29.1505 -87.5719 -16.028 -113.109 -63.5379" stroke="#FFA14A" stroke-miterlimit="10"/>
<path d="M908.904 1650.4C777.955 1661.47 641.325 1634.65 533.153 1576.21C424.982 1517.78 344.931 1428.64 317.02 1330.23C296.167 1256.25 309.347 1179.99 312.211 1106.42C314.986 1026.52 300.29 954.599 265.335 889.178C230.379 823.756 164.496 763.774 66.4695 730.705C-72.9906 683.634 -245.626 716.731 -388.76 676.855C-540.242 634.768 -636.493 507.617 -619.272 384.617C-602.031 261.432 -468.69 157.432 -326.71 115.114C-262.788 96.0076 -208.79 80.5353 -163.415 55.9611C-118.039 31.3869 -80.2679 -12.2564 -101.047 -60.6005" stroke="#FFA14A" stroke-miterlimit="10"/>
<path d="M864.965 1656.25C735.286 1665.74 601.127 1637.57 495.546 1578.72C389.965 1519.86 312.663 1430.86 286.383 1333.42C266.165 1258.13 279.704 1180.56 285.181 1105.25C290.886 1025.31 283.534 951.038 253.119 882.155C222.723 813.087 159.841 748.246 63.3128 713.397C-76.1789 663.137 -249.413 699.004 -395.309 661.159C-549.077 621.319 -651.411 494.634 -636.568 370.668C-621.724 246.702 -488.516 140.218 -341.07 102.875C-276.764 86.571 -218.934 76.1702 -168.557 54.8787C-118.161 33.4025 -73.6974 -9.09049 -89.5021 -58.0704" stroke="#FFA14A" stroke-miterlimit="10"/>
<path d="M821.28 1662.12C693.129 1669.86 561.173 1640.52 457.953 1581.04C354.714 1521.74 280.378 1433.07 255.744 1336.43C236.179 1259.66 249.814 1180.93 258.124 1104.09C266.734 1024.3 266.468 947.649 240.622 874.932C214.758 802.399 154.87 732.695 59.8359 696.064C-79.4274 642.445 -253.764 681.237 -402.419 645.426C-558.47 607.836 -666.652 481.823 -654.425 356.878C-642.197 231.933 -509.14 123.148 -356.031 91.1716C-291.342 77.6731 -229.704 72.5336 -174.297 54.1587C-118.89 35.7838 -67.7645 -5.37285 -78.567 -55.3585" stroke="#FFA14A" stroke-miterlimit="10"/>
<path d="M777.337 1667.81C650.474 1673.77 520.722 1643.25 420.086 1583.35C319.45 1523.45 248.078 1435.1 224.826 1339.43C205.893 1261.36 219.662 1181.1 230.797 1102.73C242.083 1022.88 249.374 943.886 227.808 867.683C206.243 791.481 149.588 716.923 56.0308 678.693C-83.018 621.896 -258.43 663.432 -409.587 629.674C-567.892 594.153 -681.907 468.812 -672.309 343.071C-662.712 217.33 -529.232 105.349 -370.739 78.9123C-305.408 68.0528 -239.973 68.1799 -179.809 52.8929C-119.645 37.6059 -61.6124 -2.38346 -67.4599 -53.007" stroke="#FFA14A" stroke-miterlimit="10"/>
<path d="M733.727 1673.67C608.374 1678.05 480.86 1645.99 382.541 1585.83C284.242 1525.49 216.089 1437.31 194.198 1342.79C175.916 1263.23 189.779 1181.82 203.977 1101.93C218.175 1022.04 232.523 940.663 215.471 860.988C198.42 781.312 145.01 701.711 52.6841 661.865C-86.1314 601.702 -262.652 646.356 -416.53 614.454C-577.12 581.374 -696.918 456.339 -689.703 329.819C-682.489 203.298 -548.83 88.1033 -385.245 67.5658C-319.012 59.1788 -250.308 64.916 -185.155 52.7355C-120.002 40.5549 -55.3184 1.71809 -56.221 -49.5442" stroke="#FFA14A" stroke-miterlimit="10"/>
<path d="M3814.27 556.925C3699.23 611.926 3577.32 660.531 3447.82 677.199C3318.59 693.704 3180.15 674.555 3085.08 606.407C2971.57 524.991 2929.55 383.86 2796.77 324.382C2710.81 285.915 2605.08 290.148 2505.17 289.502C2405 288.84 2296.76 279.175 2229 221.595C2107.54 118.346 2177.02 -84.5166 2043.33 -177.14C1955.04 -238.173 1821.23 -221.232 1704.87 -235.022C1557.69 -252.548 1425.81 -327.158 1355.49 -432.813C1285.17 -538.467 1277.94 -673.082 1335.98 -789.51" stroke="#FDCFA5" stroke-miterlimit="10"/>
<path d="M3798.96 572.329C3684.55 626.499 3562.85 673.698 3434.29 689.168C3356.73 698.605 3275.79 695.165 3203.09 676.139C3155.61 663.757 3111.63 644.54 3074.23 618.135C2960.89 537.764 2916.3 399.459 2787.02 338.354C2741.04 316.659 2690.01 306.769 2636.39 302.145C2591 298.217 2543.95 297.985 2497.73 297.081C2432.9 295.917 2364.12 291.791 2305.1 274.345C2272.42 264.7 2242.69 251.078 2218.1 231.808C2169.6 194.034 2148.31 142.223 2132.64 87.3266C2109.79 8.2791 2097.99 -77.4941 2035.45 -136.592C2028.85 -142.976 2021.43 -148.868 2013.5 -154.611C1926.14 -216.892 1798.46 -204.985 1689.29 -221.952C1582.37 -238.779 1485.59 -288.622 1415.89 -360.472C1395.75 -381.273 1378.07 -403.909 1362.83 -428.022C1335.6 -471.521 1317.42 -519.519 1308.43 -568.75C1294.76 -641.976 1301.25 -717.738 1329.59 -785.982" stroke="#FDCFA5" stroke-miterlimit="10"/>
<path d="M3783.91 587.956C3669.92 641.097 3548.67 686.903 3420.74 701.517C3343.52 710.436 3263.4 706.683 3191.23 687.679C3144.01 675.306 3100.26 656.453 3062.86 630.213C2949.67 551.07 2903.03 415.452 2776.97 352.881C2731.59 330.486 2682.03 318.872 2629.08 312.839C2584.09 307.667 2536.91 306.52 2490.49 305.241C2425.27 303.327 2356.02 299.168 2296.15 282.745C2263.17 273.618 2233.1 260.872 2207.43 242.427C2157.46 206.711 2133.09 157.754 2114.39 105.35C2087.11 29.9607 2069.5 -53.3309 2006.07 -113.245C1999.22 -119.648 1992.07 -125.708 1984.14 -131.454C1897.43 -194.818 1776.39 -187.92 1674.43 -208.429C1574.69 -228.437 1485.95 -280.161 1421.22 -353.552C1402.39 -374.826 1385.53 -397.968 1371.1 -422.588C1344.98 -466.948 1326.63 -515.709 1316.19 -565.423C1300.58 -639.357 1302.01 -714.938 1323.89 -781.816" stroke="#FDCFA5" stroke-miterlimit="10"/>
<path d="M3768.88 603.4C3655.52 655.702 3534.47 700.096 3407.21 713.671C3330.59 721.908 3251.27 718.021 3179.62 699.039C3132.91 686.692 3089.41 668.025 3051.98 642.131C2938.71 564.027 2889.77 431.091 2766.91 367.237C2722.39 343.979 2674.02 330.803 2621.48 323.524C2576.89 317.106 2529.8 315.24 2482.98 313.21C2417.36 310.544 2347.38 306.337 2286.91 290.954C2253.38 282.331 2222.75 270.267 2196.44 253.041C2144.76 219.371 2117.8 173.486 2095.83 123.385C2063.9 51.468 2040.45 -28.9741 1976.38 -89.8652C1969.53 -96.2719 1962.41 -102.514 1954.5 -108.444C1868.45 -173.068 1753.79 -171.201 1659.26 -194.879C1566.44 -218.087 1486.23 -271.658 1425.97 -346.8C1408.46 -368.547 1392.69 -392.358 1378.8 -417.319C1353.8 -462.719 1335.27 -512.061 1323.62 -562.239C1305.82 -636.893 1302.45 -712.272 1317.86 -777.599" stroke="#FFC087" stroke-miterlimit="10"/>
<path d="M3753.83 618.865C3640.88 670.129 3520.27 713.121 3393.89 725.851C3317.86 733.585 3239.09 729.368 3167.97 710.409C3121.53 698.073 3078.27 679.593 3041.03 654.244C2927.68 577.185 2876.7 446.957 2757.04 381.644C2713.12 357.686 2666.18 342.963 2614.33 334.093C2570.13 326.608 2522.92 323.646 2475.67 321.044C2409.65 317.627 2339.17 313.568 2277.62 299.016C2243.78 291.094 2212.59 279.533 2185.41 263.512C2132.01 231.893 2102.5 188.725 2077.2 141.473C2040.86 73.2316 2011.6 -4.71264 1946.38 -66.4296C1939.55 -73.0192 1932.18 -79.2803 1924.53 -85.197C1839.37 -150.883 1730.82 -154.069 1643.47 -181.113C1557.81 -207.507 1485.87 -262.94 1430.35 -339.815C1414.17 -362.212 1399.44 -386.332 1386.11 -411.813C1362.22 -458.071 1343.54 -508.351 1330.41 -558.827C1310.43 -634.196 1302.51 -709.353 1311.22 -773.318" stroke="#F29137" stroke-miterlimit="10"/>
<path d="M3738.81 634.534C3626.23 684.936 3506.06 726.522 3380.34 738.21C3304.88 745.439 3226.95 740.728 3156.07 721.958C3109.89 709.633 3066.87 691.342 3029.86 666.358C2916.67 590.365 2863.14 462.823 2746.92 396.248C2703.6 371.412 2658.1 355.141 2606.65 345.023C2562.84 336.291 2515.5 332.413 2468.05 329.435C2401.87 325.281 2330.41 321.159 2268.27 307.65C2233.87 300.234 2202.35 289.553 2174.56 274.575C2119.44 245.01 2087.1 204.729 2058.77 159.986C2018.03 95.2477 1982.71 19.9721 1916.83 -42.5368C1909.76 -49.1448 1902.66 -55.5726 1895.02 -61.6717C1810.5 -128.433 1708.33 -136.84 1628.39 -167.056C1549.66 -196.834 1486.21 -253.933 1435.14 -332.373C1420.28 -355.241 1406.63 -380.028 1393.84 -405.848C1371.05 -452.963 1352.2 -504 1337.85 -554.754C1315.92 -630.64 1302.96 -705.781 1305.23 -768.363" stroke="#F29137" stroke-miterlimit="10"/>
<path d="M3723.72 650.002C3611.77 699.558 3491.81 739.542 3366.72 750.367C3291.84 757.091 3214.47 752.051 3144.36 733.32C3098.69 721.022 3055.92 702.919 3018.87 678.285C2905.6 603.342 2850.02 478.519 2736.98 410.664C2694.28 384.949 2650.21 367.129 2599.17 355.762C2555.74 345.961 2508.52 341.001 2460.65 337.451C2394.07 332.544 2322.13 328.389 2259.15 315.729C2224.46 308.835 2192.37 298.84 2163.7 285.069C2107.11 257.576 2071.71 220.168 2040.34 177.936C1994.94 116.867 1954.07 44.1123 1887.29 -19.2058C1880.22 -25.8164 1872.87 -32.2627 1865.26 -38.5444C1781.4 -106.563 1685.58 -120.015 1612.82 -153.603C1541.24 -186.572 1485.82 -245.731 1439.7 -325.707C1426.15 -349.047 1413.31 -374.338 1401.34 -400.662C1379.66 -448.815 1360.63 -500.429 1344.82 -551.659C1320.71 -628.258 1302.95 -703.189 1298.78 -764.389" stroke="#F29137" stroke-miterlimit="10"/>
<path d="M3708.39 665.662C3596.84 714.175 3477.32 752.752 3353.12 762.729C3278.84 768.767 3202.25 763.593 3132.42 744.871C3087.01 732.583 3044.48 714.67 3007.64 690.582C2894.51 616.884 2836.67 494.405 2727.07 425.284C2684.97 398.689 2642.32 379.498 2591.96 366.536C2548.94 355.486 2501.56 349.788 2453.51 345.68C2386.53 340.02 2313.84 335.998 2250.29 324.203C2215.05 317.815 2182.37 308.686 2153.11 295.779C2094.81 270.343 2056.81 236.022 2022.19 196.106C1972.4 138.545 1925.71 68.478 1857.79 4.33389C1850.73 -2.45978 1843.39 -8.90869 1835.78 -15.1931C1752.56 -84.2898 1663.12 -102.973 1597.75 -139.74C1533.09 -176.099 1486.16 -236.928 1444.51 -318.654C1432.29 -342.647 1420.49 -368.246 1409.1 -395.271C1388.53 -444.283 1369.6 -496.821 1352.32 -548.348C1326.27 -625.646 1303.48 -700.562 1292.86 -760.198" stroke="#F29137" stroke-miterlimit="10"/>
<path d="M3693.36 681.139C3582.18 728.786 3463.1 765.954 3339.54 774.886C3265.59 780.403 3189.82 774.913 3120.75 756.232C3075.58 744.136 3033.56 726.247 2996.44 702.495C2883.22 629.851 2823.36 509.919 2716.92 439.698C2675.41 412.403 2633.97 391.465 2584.26 377.268C2541.61 365.148 2494.11 358.35 2445.63 353.669C2378.25 347.256 2305.08 343.201 2240.43 332.421C2204.89 326.557 2171.64 318.114 2141.51 306.418C2081.49 283.041 2040.68 251.615 2003.03 214.216C1948.57 160.332 1896.1 92.7775 1827.52 27.8406C1820.47 21.0443 1813.15 14.4126 1805.56 7.94554C1723.24 -62.3926 1639.67 -86.3419 1581.93 -126.093C1523.93 -165.86 1485.73 -228.343 1448.53 -311.637C1437.62 -336.101 1426.9 -362.369 1416.05 -389.734C1396.58 -439.603 1377.48 -492.899 1358.75 -544.9C1330.52 -622.911 1302.94 -697.614 1285.88 -755.863" stroke="#F29137" stroke-miterlimit="10"/>
<path d="M3678.29 696.645C3567.77 743.264 3448.63 778.99 3325.95 787.073C3252.58 792.083 3177.36 786.263 3108.81 767.606C3064.16 755.537 3022.11 738.002 2985.23 714.436C2871.93 642.845 2810.03 525.639 2706.78 453.954C2665.88 425.777 2625.87 403.286 2576.58 387.656C2534.33 374.285 2486.95 366.583 2438.04 361.328C2370.26 354.16 2296.61 350.073 2231.12 340.325C2195.03 334.968 2161.19 327.392 2130.7 316.758C2068.97 295.443 2025.34 266.913 1984.67 232.032C1925.83 181.662 1867.55 116.8 1798.07 51.0521C1790.77 44.2373 1783.47 37.4226 1776.13 30.9686C1694.46 -40.4493 1617.27 -69.8186 1566.65 -112.589C1515.59 -155.933 1485.86 -220.088 1453.36 -304.939C1443.75 -329.876 1433.84 -356.649 1423.8 -384.519C1405.43 -435.249 1386.17 -489.304 1366.23 -541.767C1335.82 -620.493 1303.45 -694.984 1279.97 -751.847" stroke="#F29137" stroke-miterlimit="10"/>
<path d="M3663.26 712.313C3553.11 758.065 3434.41 792.379 3312.63 799.431C3239.85 803.754 3165.45 797.619 3097.14 779.152C3052.75 767.094 3010.94 749.748 2974.26 726.731C2861.13 656.212 2797.2 541.557 2696.86 468.755C2656.82 439.713 2617.99 415.652 2569.35 398.785C2527.5 384.162 2479.95 375.721 2430.87 369.908C2362.68 361.984 2288.31 357.849 2222.22 349.149C2185.83 344.317 2151.41 337.609 2120.06 328.007C2056.61 308.755 2010.42 283.141 1966.47 250.764C1902.98 204.079 1838.92 141.734 1768.51 75.3574C1761.24 68.3597 1753.94 61.5423 1746.37 54.8897C1665.35 -17.7866 1594.28 -52.4146 1551.29 -98.3551C1507.14 -145.096 1485.89 -210.923 1457.84 -297.525C1449.56 -323.115 1440.71 -350.376 1431.21 -378.587C1413.96 -430.356 1394.53 -485.17 1373.12 -537.927C1340.79 -617.35 1303.38 -691.643 1273.47 -747.115" stroke="#FDCFA5" stroke-miterlimit="10"/>
<path d="M3648.22 727.811C3538.47 772.516 3420.21 805.417 3299.06 811.603C3226.86 815.418 3153.02 808.952 3085.48 790.525C3041.35 778.478 3000.03 761.338 2963.32 738.673C2850.1 669.21 2784.17 556.926 2686.97 483.201C2647.54 453.276 2610.14 427.66 2561.92 409.359C2520.45 393.663 2472.78 384.12 2423.52 377.748C2355.18 369.084 2280.07 365.082 2213.14 357.235C2176.21 352.911 2141.47 346.907 2109.25 338.518C2044.09 321.331 1995.09 298.619 1948.11 268.765C1879.99 225.585 1810.36 166.135 1739.08 98.767C1731.8 91.7665 1724.26 84.9308 1716.96 78.1108C1636.58 4.35415 1571.9 -35.8829 1536.01 -84.667C1499.05 -135.154 1486 -202.492 1462.62 -290.47C1455.65 -316.534 1447.86 -344.285 1438.91 -373.018C1422.76 -425.648 1403.17 -481.221 1380.56 -534.439C1346.04 -614.577 1303.85 -688.656 1267.53 -742.738" stroke="#FDCFA5" stroke-miterlimit="10"/>
<path d="M3633.15 743.502C3524.03 787.354 3405.96 818.825 3285.46 823.963C3213.84 827.27 3140.8 820.488 3073.53 802.071C3029.66 790.036 2988.58 773.086 2952.1 750.789C2839.02 682.58 2770.84 572.656 2676.81 497.647C2637.98 466.839 2602.02 439.667 2554.2 420.11C2513.12 403.16 2465.57 392.712 2415.61 385.929C2346.87 376.509 2271.03 372.46 2203.26 365.647C2165.78 361.832 2130.45 356.698 2097.62 349.358C2030.5 334.223 1978.94 314.431 1928.94 287.102C1856.17 247.611 1780.77 190.684 1708.84 122.52C1701.31 115.501 1694.04 108.498 1686.77 101.495C1607.27 26.6742 1548.99 -19.1759 1520.19 -70.8054C1490.14 -124.877 1485.53 -193.709 1466.61 -283.441C1460.97 -310.159 1453.98 -338.416 1445.83 -367.473C1430.78 -420.964 1411.01 -477.296 1386.95 -530.991C1350.26 -611.842 1303.29 -685.706 1260.55 -738.395" stroke="#FDCFA5" stroke-miterlimit="10"/>
<path d="M3617.88 759.014C3509.16 801.817 3391.52 831.873 3271.9 836.159C3200.88 838.777 3128.38 831.844 3061.88 813.467C3018.52 801.46 2977.68 784.7 2941.15 762.936C2827.98 695.785 2758.04 588.433 2666.91 512.303C2628.71 480.431 2594.14 452.062 2547.01 430.904C2506.33 412.699 2458.64 401.327 2408.51 393.985C2339.36 383.809 2263.04 379.727 2194.43 373.949C2156.65 370.66 2120.76 366.215 2087.32 359.925C2018.47 347.039 1964.12 329.973 1911.11 305.171C1833.96 269.208 1752.77 214.984 1679.69 145.993C1672.18 138.791 1664.91 131.785 1657.64 124.779C1578.8 48.6958 1526.89 -2.59188 1505.42 -57.054C1482.56 -114.878 1486.14 -185.223 1471.66 -276.531C1467.32 -303.723 1461.39 -332.47 1453.79 -362.05C1439.86 -416.583 1419.93 -473.676 1394.63 -527.471C1356.02 -609.022 1304.01 -682.687 1254.84 -733.802" stroke="#FFD3BD" stroke-miterlimit="10"/>
<path d="M3602.84 774.541C3494.5 816.474 3377.32 844.933 3258.33 848.349C3187.64 850.443 3115.96 843.014 3049.96 824.843C3006.86 812.847 2966.27 796.277 2929.7 774.868C2816.7 708.792 2744.76 603.82 2656.51 526.75C2619.17 494.01 2585.78 464.067 2539.04 441.652C2498.74 422.372 2450.91 410.077 2400.62 401.994C2331.08 391.061 2254.01 387.112 2184.82 382.205C2146.5 379.426 2110.02 375.852 2075.98 370.613C2005.42 359.797 1948.26 345.641 1892.21 323.549C1810.42 291.282 1723.71 239.6 1649.73 169.798C1642.23 162.593 1634.73 155.388 1627.73 148.215C1549.53 71.0504 1504.25 14.1566 1489.63 -43.3517C1473.93 -104.749 1485.69 -176.607 1475.89 -269.474C1472.86 -297.14 1468 -326.558 1460.95 -356.479C1448.11 -411.874 1428.02 -469.728 1401.27 -523.998C1360.48 -606.264 1303.7 -679.713 1248.12 -729.432" stroke="#FFD3BD" stroke-miterlimit="10"/>
<path d="M3587.78 790.237C3480.08 831.136 3363.07 858.341 3244.73 860.708C3174.61 862.292 3103.74 854.547 3038.03 836.204C2995.19 824.22 2954.84 807.841 2918.5 786.801C2805.41 721.785 2731.47 619.194 2646.38 541.018C2609.64 507.392 2577.43 475.874 2531.34 452.216C2491.43 431.679 2443.72 418.477 2392.98 409.998C2323.04 398.307 2245.5 394.326 2175.46 390.456C2136.83 388.383 2099.78 385.501 2064.88 381.298C1992.62 372.554 1932.91 361.325 1873.59 341.749C1787.16 313.181 1694.68 264.027 1620.05 193.428C1612.31 186.205 1605.08 178.832 1597.83 171.64C1520.54 93.2276 1481.62 30.8878 1474.08 -29.4734C1465.81 -94.6138 1485.5 -168.002 1480.13 -262.447C1478.42 -290.769 1474.6 -320.497 1468.12 -351.122C1456.4 -407.56 1436.12 -465.995 1408.17 -520.726C1365.21 -603.708 1303.66 -676.941 1241.42 -725.28" stroke="#FDCFA5" stroke-miterlimit="10"/>
<path d="M3572.75 805.761C3465.43 845.789 3348.88 871.395 3231.17 872.891C3161.63 873.966 3091.32 865.888 3026.37 847.587C2984.04 835.63 2943.93 819.442 2907.54 798.936C2794.62 734.997 2718.68 634.788 2636.47 555.67C2600.58 521.175 2569.56 488.079 2524.14 462.997C2484.63 441.202 2436.77 427.075 2385.86 418.036C2315.52 405.586 2237.25 401.558 2166.4 398.544C2127.22 396.982 2089.83 394.988 2054.08 391.822C1980.09 385.333 1917.6 376.837 1855.27 359.794C1764.23 334.747 1666.21 288.32 1590.44 216.892C1582.69 209.666 1575.22 202.275 1568.24 194.915C1491.58 115.419 1459.53 47.6595 1458.58 -15.7693C1457.71 -84.4748 1485.57 -159.379 1484.65 -255.584C1484.24 -284.381 1481.5 -314.782 1475.56 -345.749C1464.93 -403.051 1444.76 -462.413 1415.34 -517.441C1370.46 -601.123 1303.88 -674.156 1235.25 -721.097" stroke="#FDCFA5" stroke-miterlimit="10"/>
<path d="M3557.69 821.29C3450.77 860.265 3334.64 884.632 3217.83 885.092C3148.88 885.476 3079.36 877.262 3014.68 858.97C2972.59 847.206 2932.72 831.209 2896.57 810.892C2783.55 748.197 2705.89 650.207 2626.57 569.965C2591.31 534.403 2561.69 499.925 2516.67 473.584C2477.56 450.53 2429.54 435.658 2378.23 425.861C2307.74 412.668 2228.75 408.593 2157.05 406.617C2117.57 405.583 2079.44 403.722 2043.25 402.349C1967.42 399.202 1902.26 392.356 1836.92 377.848C1741.49 356.523 1637.47 312.612 1561.05 240.386C1553.33 232.977 1545.86 225.583 1538.9 218.039C1462.9 137.278 1437.45 64.0793 1443.57 -2.20727C1450.09 -74.4805 1485.9 -151.099 1489.38 -248.703C1490.52 -277.96 1488.58 -308.869 1483.2 -340.359C1473.67 -398.526 1453.33 -458.65 1422.47 -514.155C1375.42 -598.554 1304.07 -671.37 1229.04 -716.912" stroke="#FDCFA5" stroke-miterlimit="10"/>
<path d="M3542.65 837.005C3436.36 875.123 3320.44 897.872 3204.26 897.461C3135.89 897.335 3066.95 888.607 3003.01 870.537C2961.19 858.784 2921.56 842.978 2885.61 823.212C2772.5 761.58 2693.35 666.008 2616.66 584.807C2582.25 548.373 2553.81 512.316 2509.21 484.532C2470.47 460.399 2422.59 444.437 2370.83 434.243C2299.94 420.29 2220.21 416.348 2147.94 415.247C2107.92 414.724 2069.39 414.295 2032.43 413.237C1955.01 411.082 1886.92 408.422 1818.59 396.27C1718.53 378.653 1609.01 337.293 1531.69 264.253C1523.72 256.825 1516.52 249.262 1509.57 241.716C1434.2 159.869 1415.6 81.2423 1428.58 11.7177C1442.49 -64.1267 1486.21 -142.28 1494.14 -241.647C1496.6 -271.561 1495.47 -302.978 1490.87 -334.796C1482.46 -394.008 1461.93 -454.715 1429.87 -510.682C1380.63 -595.617 1304.79 -668.382 1223.12 -712.539" stroke="#FDCFA5" stroke-miterlimit="10"/>
<path d="M3527.35 852.553C3421.45 889.617 3305.96 911.125 3190.43 909.66C3122.63 909.023 3054.24 899.962 2990.82 881.918C2949.51 870.192 2910.12 854.578 2874.14 835.167C2761.2 774.615 2680.06 681.434 2606.24 599.289C2572.71 561.802 2545.43 524.346 2501.47 495.316C2463.13 469.923 2415.11 453.034 2363.18 442.278C2291.89 427.565 2211.68 423.592 2138.57 423.53C2098.25 423.536 2058.89 423.966 2021.33 423.963C1942.19 424.067 1871.32 424.147 1799.98 414.536C1695.32 400.449 1580.25 362.004 1501.81 287.954C1493.85 280.523 1486.42 272.761 1479.48 265.03C1405 182.114 1393 98.0405 1412.56 25.4414C1434.11 -53.9601 1485.76 -133.83 1498.1 -234.779C1501.86 -265.169 1501.79 -297.078 1497.75 -329.419C1490.43 -389.497 1469.75 -451.147 1436.23 -507.411C1385.08 -593.046 1304.22 -665.609 1216.16 -708.363" stroke="#FDCFA5" stroke-miterlimit="10"/>
<path d="M3512.32 868.266C3406.8 904.456 3291.76 924.359 3177.11 922.036C3109.66 920.692 3042.31 911.51 2979.15 893.475C2938.1 881.762 2898.95 866.338 2862.95 847.284C2749.92 787.797 2667.29 697.039 2596.12 613.753C2563.43 575.394 2537.33 536.357 2493.79 505.883C2455.84 479.229 2407.69 461.412 2355.56 450.275C2283.86 434.983 2202.95 430.781 2129.24 431.776C2088.38 432.294 2048.69 433.615 2010.27 434.652C1929.43 436.838 1856.01 439.857 1781.42 432.771C1672.38 422.414 1551.32 386.494 1472.24 311.645C1464.29 304.03 1456.86 296.265 1449.93 288.532C1376.1 204.349 1370.92 115.02 1397.31 39.3601C1426.22 -43.4361 1485.8 -125.024 1502.56 -227.555C1507.64 -258.603 1508.6 -290.824 1505.11 -323.69C1498.88 -384.633 1478.05 -447.047 1443.33 -503.772C1390.01 -590.124 1304.4 -662.468 1209.95 -703.819" stroke="#FDCFA5" stroke-miterlimit="10"/>
<path d="M3497.3 883.838C3392.41 919.168 3277.58 937.449 3163.56 934.253C3096.69 932.396 3029.89 922.882 2967.5 904.888C2926.71 893.187 2888.05 877.971 2851.99 859.453C2739.11 801.23 2654.51 712.685 2586.21 628.454C2554.4 589.041 2529.46 548.603 2486.31 516.866C2448.76 488.949 2400.7 470.402 2347.92 458.489C2275.81 442.436 2194.41 438.383 2119.64 440.223C2078.23 441.254 2038.21 443.467 1999.19 445.561C1916.63 450.01 1840.41 455.955 1762.84 451.232C1649.16 444.774 1522.62 411.23 1442.65 335.566C1434.45 327.932 1427.28 320.181 1420.39 312.082C1347.19 226.812 1348.85 132.045 1381.81 53.3053C1418.1 -33.0692 1485.6 -116.376 1507.02 -220.476C1513.4 -252 1515.43 -284.895 1512.48 -318.104C1507.37 -380.095 1486.34 -443.091 1450.18 -500.294C1394.7 -587.363 1304.33 -659.488 1203.51 -699.434" stroke="#FDCFA5" stroke-miterlimit="10"/>
<path d="M3482.28 899.381C3377.79 933.654 3263.38 950.691 3150 946.439C3083.71 944.071 3017.73 934.057 2955.59 916.254C2915.31 904.58 2876.64 889.541 2840.81 871.395C2727.85 814.239 2641.76 728.12 2576.08 642.928C2544.87 602.625 2521.35 560.619 2478.87 527.451C2441.72 498.271 2393.52 478.795 2340.56 466.319C2268.06 449.504 2185.94 445.404 2110.58 448.302C2068.88 449.863 2028.02 452.936 1988.4 456.088C1904.12 462.802 1825.14 471.494 1744.56 469.317C1626.27 466.58 1493.99 435.58 1413.12 359.1C1404.93 351.463 1397.53 343.512 1390.89 335.426C1318.35 248.887 1326.57 148.84 1366.62 66.8688C1410.51 -22.8908 1485.92 -107.919 1511.52 -213.802C1519.21 -245.804 1522.03 -279.208 1519.89 -312.927C1515.87 -375.784 1494.7 -439.727 1457.31 -497.03C1399.91 -584.801 1304.54 -656.723 1197.34 -695.262" stroke="#FDCFA5" stroke-miterlimit="10"/>
<path d="M3467.22 915.131C3363.35 948.544 3249.16 963.957 3136.66 958.846C3070.94 955.965 3005.52 945.617 2944.15 927.856C2904.13 916.194 2865.7 901.346 2830.09 883.572C2717.29 827.5 2629.46 743.795 2566.42 657.459C2536.34 616.116 2513.72 572.69 2471.64 538.256C2434.86 507.993 2386.8 487.422 2333.4 474.549C2260.75 456.987 2177.91 452.84 2101.71 456.781C2059.47 458.855 2018.28 462.822 1977.83 466.835C1891.83 475.817 1810.33 487.274 1726.5 487.629C1603.86 488.449 1465.83 460.177 1384.07 382.88C1375.9 375.06 1368.5 367.105 1361.64 358.82C1289.98 271.208 1304.78 165.696 1351.65 80.6554C1402.91 -12.6889 1486.45 -99.2426 1516.22 -206.728C1525.46 -239.374 1529.09 -273.288 1527.51 -307.532C1524.57 -371.258 1503.24 -435.966 1464.41 -493.747C1404.85 -582.237 1304.73 -653.939 1191.14 -690.89" stroke="#FDCFA5" stroke-miterlimit="10"/>
<path d="M3452.23 930.692C3348.76 963.046 3234.98 977.213 3123.13 971.045C3058 967.469 2993.12 956.969 2932.26 939.234C2892.5 927.584 2854.55 913.125 2818.91 895.708C2706.03 840.706 2616.73 759.251 2556.29 672.134C2527.05 629.916 2505.61 584.905 2464.18 549.221C2427.79 517.693 2379.57 496.374 2326.02 482.755C2252.97 464.431 2169.39 460.418 2092.62 465.237C2050.09 467.842 2008.34 472.504 1967.02 477.742C1879.33 488.812 1795.03 503.201 1708.19 506.288C1580.94 510.834 1437.43 485.126 1354.77 407.014C1346.61 399.191 1338.98 391.037 1332.36 382.764C1261.36 293.882 1282.94 183.281 1336.39 94.9731C1395 -1.77623 1486.47 -90.2344 1520.89 -199.292C1531.43 -232.415 1536.11 -266.823 1535.08 -301.593C1533.26 -366.368 1511.74 -431.659 1471.71 -489.903C1410 -579.11 1305.13 -650.591 1185.17 -686.133" stroke="#FDCFA5" stroke-miterlimit="10"/>
<path d="M3436.91 946.449C3333.82 977.925 3220.5 990.481 3109.28 983.437C3044.73 979.348 2980.65 968.528 2920.06 950.803C2880.54 939.347 2842.84 924.899 2807.42 907.855C2694.71 853.939 2603.93 774.917 2545.88 686.639C2517.51 643.364 2497.21 597.128 2456.2 559.814C2420.22 527.02 2371.86 504.77 2317.89 490.571C2244.44 471.484 2160.39 467.439 2082.55 473.107C2039.48 476.226 1997.4 481.783 1955.48 488.081C1866.3 501.618 1779.01 518.564 1689.18 524.203C1557.34 532.297 1408.08 509.322 1324.54 430.392C1316.13 422.551 1308.77 414.228 1302.15 405.952C1231.79 315.98 1260.19 199.923 1320.44 108.541C1386.61 8.57979 1486 -81.7854 1524.59 -192.629C1536.43 -226.231 1541.93 -261.331 1541.69 -296.43C1540.95 -362.074 1519.27 -428.131 1477.81 -486.853C1414.18 -576.763 1304.32 -648.04 1178 -682.171" stroke="#FDCFA5" stroke-miterlimit="10"/>
<path d="M3421.9 962.027C3259.85 1010.07 3071.69 1010.21 2908.41 962.208C2745.13 914.206 2608.94 818.384 2536.25 701.178C2508.75 656.845 2489.6 609.203 2449 570.62C2365.1 490.541 2210.13 469.937 2073.71 481.582C1937.54 493.243 1807.59 530.889 1671.15 542.716C1534.96 554.559 1379.97 534.136 1295.54 454.389C1197.29 361.337 1232.24 225.909 1305.49 122.521C1379.02 18.9675 1486.28 -72.9432 1529.52 -185.362C1567.24 -283.508 1551.15 -392.557 1485.36 -483.186C1419.58 -573.815 1304.99 -644.871 1172.31 -677.59" stroke="#FF7E07" stroke-miterlimit="10"/>
<path d="M3378.18 967.739C3217.47 1014.27 3031.89 1013.11 2871.33 964.494C2710.77 915.875 2576.38 820.785 2506.18 704.147C2478.83 658.672 2461.65 609.085 2422.7 569.28C2343.7 488.502 2194.31 466.213 2062.63 474.512C1931.21 482.826 1804.33 516.319 1669.79 525.717C1533.48 535.368 1377.7 516.882 1290.66 438.888C1190 348.135 1218.61 213.061 1289.66 108.496C1360.7 3.93089 1470.38 -88.4827 1516.73 -197.909C1556.77 -292.546 1542.72 -397.385 1482.17 -485.045C1421.62 -572.704 1314 -642.67 1186.51 -676.015" stroke="#FF7E07" stroke-miterlimit="10"/>
<path d="M3334.26 973.265C3175.15 1018.12 2991.89 1015.82 2833.78 966.753C2675.68 917.683 2543.37 822.98 2475.91 706.93C2448.71 660.13 2433.7 608.974 2396.42 567.946C2322.53 486.665 2178.48 462.49 2051.79 467.449C1924.87 472.211 1801.06 501.722 1668.4 508.868C1531.99 516.141 1375.13 499.946 1285.5 423.529C1182.18 335.249 1205.01 200.2 1273.3 94.7897C1341.6 -10.6202 1453.72 -103.719 1503.4 -209.945C1545.97 -300.866 1533.76 -401.863 1478.43 -486.545C1422.85 -571.242 1322.45 -640.099 1200.14 -674.07" stroke="#FF7E07" stroke-miterlimit="10"/>
<path d="M3290.59 978.988C3132.84 1022.15 2952.16 1018.54 2796.5 969.202C2640.83 919.862 2510.87 825.38 2445.9 709.902C2418.87 661.773 2406.03 609.044 2370.18 566.592C2301.14 484.79 2162.91 458.938 2040.72 460.337C1918.54 461.736 1797.78 487.256 1666.78 491.946C1530.52 496.853 1372.35 482.939 1280.4 408.118C1174.45 322.134 1191.47 187.292 1257.03 81.0345C1322.58 -25.2233 1437.35 -118.812 1490.39 -222.196C1534.98 -309.243 1525.34 -406.343 1474.99 -488.239C1424.62 -569.953 1331.16 -637.533 1214.05 -672.314" stroke="#FF7E07" stroke-miterlimit="10"/>
<path d="M3246.62 984.728C3090.47 1026.39 2911.88 1021.44 2758.95 971.48C2606.01 921.52 2478.14 827.427 2415.63 712.704C2388.77 663.244 2378.06 609.12 2343.66 565.057C2279.45 482.915 2146.83 455.001 2029.39 452.847C1911.95 450.693 1794.25 472.213 1664.89 474.625C1528.28 477.31 1369.59 465.366 1274.82 392.297C1166.24 308.616 1177.46 174.164 1240.29 66.8734C1303.37 -40.4012 1420.24 -134.148 1476.64 -234.686C1523.5 -318.017 1515.94 -411.242 1470.79 -490.149C1425.64 -569.056 1339.11 -635.355 1227.2 -670.95" stroke="#FFA14A" stroke-miterlimit="10"/>
<path d="M3203.01 990.289C3048.24 1030.25 2872.23 1024.17 2722 973.771C2571.78 923.373 2445.99 829.669 2385.95 715.704C2359.25 664.909 2350.46 609.189 2317.71 563.892C2258.33 481.41 2131.29 451.428 2018.58 445.895C1905.87 440.362 1791.02 457.491 1663.52 457.819C1526.84 458.112 1367.37 448.309 1270.03 377.013C1159.1 295.656 1164.05 161.382 1224.63 53.2714C1284.97 -54.8552 1404.22 -149.112 1464.2 -246.781C1513.09 -326.403 1507.82 -415.547 1467.86 -491.457C1427.91 -567.368 1348.31 -632.568 1241.81 -668.778" stroke="#FFA14A" stroke-miterlimit="10"/>
<path d="M3159.08 996.031C3005.94 1034.3 2832.26 1027.07 2684.52 976.038C2536.78 925.002 2413.58 831.721 2355.75 718.499C2329.21 666.367 2322.56 609.244 2291.5 562.345C2236.66 479.688 2115.71 447.666 2007.49 438.547C1899.52 429.444 1787.72 442.555 1661.87 440.594C1525.14 438.306 1364.87 431.018 1264.75 361.301C1151.22 282.259 1150.41 148.196 1208.28 39.0482C1266.14 -70.0995 1387.23 -164.534 1450.78 -259.328C1501.41 -335.066 1498.97 -420.452 1463.95 -493.376C1428.93 -566.3 1356.48 -630.2 1255.16 -667.227" stroke="#FFA14A" stroke-miterlimit="10"/>
<path d="M3115.35 1001.82C2963.5 1038.36 2792.3 1030 2646.95 978.525C2501.6 927.055 2380.94 834.057 2325.28 721.634C2298.9 668.187 2294.13 609.672 2264.73 561.373C2214.38 478.763 2099.23 444.327 1995.91 431.83C1892.34 419.318 1783.57 428.026 1659.55 423.785C1522.68 419.093 1361.32 413.94 1258.85 346.051C1142.91 269.382 1136.1 135.764 1191.28 25.6348C1246.47 -84.4948 1369.67 -178.857 1436.86 -271.088C1489.27 -342.896 1489.37 -424.309 1459.53 -494.373C1429.66 -564.253 1364.34 -627.005 1267.87 -664.668" stroke="#FFA14A" stroke-miterlimit="10"/>
<path d="M3071.34 1007.4C2921 1042.39 2752.05 1032.7 2609.32 980.81C2466.58 928.923 2348.2 836.199 2294.72 724.585C2268.49 669.825 2265.82 610.119 2237.86 560.041C2191.75 477.467 2082.62 440.631 1983.94 424.737C1885.03 408.645 1778.48 418.236 1656.79 406.769C1520.37 393.992 1357.56 396.669 1252.24 330.585C1133.9 256.296 1121.1 122.954 1173.84 12.0487C1226.58 -98.8562 1351.45 -193.537 1422.74 -282.797C1476.94 -350.847 1479.59 -428.275 1454.87 -495.104C1430.17 -562.116 1371.67 -623.363 1280.31 -661.829" stroke="#FFA14A" stroke-miterlimit="10"/>
<path d="M3027.59 1013.21C2878.53 1046.46 2711.8 1035.61 2571.7 983.118C2431.34 930.798 2315.48 838.365 2264.15 727.745C2238.07 671.671 2237.28 610.574 2210.97 559.096C2169.08 476.56 2066.21 437.519 1971.95 417.842C1877.68 398.347 1773.61 403.862 1653.99 389.939C1517.49 374.198 1353.76 379.584 1245.85 315.323C1124.86 243.403 1106.34 110.352 1156.39 -1.34355C1206.44 -113.04 1333.2 -207.84 1408.35 -294.324C1464.07 -358.443 1469.76 -431.85 1449.96 -495.822C1430.15 -559.795 1378.75 -619.887 1292.46 -658.973" stroke="#FFA14A" stroke-miterlimit="10"/>
<path d="M2983.59 1018.99C2835.82 1050.49 2671.55 1038.5 2533.83 985.583C2396.1 932.662 2282.74 840.703 2233.33 730.879C2207.65 673.505 2208.46 611.184 2184.08 557.953C2146.41 475.637 2049.56 434.007 1959.94 410.924C1870.31 387.84 1769.81 383.621 1651.16 373.074C1513.41 360.749 1349.92 362.648 1239.19 300.014C1115.81 230.482 1091.07 97.6929 1138.68 -14.7791C1186.29 -127.251 1314.46 -222.202 1393.97 -306.059C1450.97 -366.26 1459.71 -435.824 1445.04 -496.738C1430.36 -557.651 1385.8 -616.603 1304.58 -656.31" stroke="#FFA14A" stroke-miterlimit="10"/>
<path d="M2939.85 1024.61C2793.61 1054.39 2631.58 1041.05 2496.2 987.884C2360.83 934.714 2250 842.865 2202.76 733.854C2177.23 675.164 2179.65 611.618 2157.19 556.633C2123.49 474.339 2033.14 430.331 1947.89 403.822C1862.89 377.328 1765.39 368.683 1648.54 356.029C1510.66 341.104 1346.31 345.349 1232.96 284.728C1107.22 217.404 1076.48 85.262 1121.43 -28.1841C1166.38 -141.63 1296.17 -236.533 1379.77 -317.591C1438.06 -374.051 1449.81 -439.4 1440.26 -497.251C1430.72 -555.102 1392.96 -612.728 1316.83 -653.24" stroke="#FFA14A" stroke-miterlimit="10"/>
<path d="M2895.82 1030.42C2750.84 1058.63 2591.3 1043.98 2458.56 990.203C2325.82 936.431 2217.51 844.872 2172.17 736.841C2147.04 676.848 2151.06 612.072 2130.26 555.498C2100.24 473.575 2016.4 427.002 1936.04 396.91C1855.67 366.817 1760.94 353.725 1645.88 338.961C1507.66 321.235 1342.68 328.028 1226.76 269.237C1098.63 204.306 1061.95 72.4428 1104.48 -41.966C1147.01 -156.375 1277.68 -251.278 1366.12 -329.674C1425.19 -382.238 1440.72 -443.69 1436.04 -498.492C1431.37 -553.295 1400.68 -609.764 1329.61 -650.9" stroke="#FFA14A" stroke-miterlimit="10"/>
<path d="M2852.11 1036.03C2708.66 1062.51 2551.34 1046.7 2420.96 992.489C2290.58 938.283 2185.02 847.034 2141.85 739.819C2116.89 678.323 2122.49 612.502 2103.61 554.17C2077.3 472.438 1999.95 423.297 1924.2 389.786C1848.2 356.259 1756.48 338.547 1643.19 321.854C1504.85 301.522 1339.26 310.683 1220.27 253.696C1089.77 191.163 1047.15 59.5827 1087.01 -55.618C1126.86 -170.819 1258.67 -265.888 1351.67 -341.448C1411.79 -390.279 1430.56 -447.491 1431.02 -499.407C1431.47 -551.324 1407.58 -606.466 1341.56 -648.226" stroke="#FFA14A" stroke-miterlimit="10"/>
<path d="M2808.12 1041.85C2665.96 1066.58 2510.85 1049.6 2383.08 994.971C2255.3 940.347 2152.28 849.207 2110.98 743.161C2086.42 680.361 2093.12 613.278 2076.64 553.401C2054.01 471.859 1983.4 420.163 1912.03 383.029C1840.65 345.896 1751.69 323.726 1640.16 305.103C1501.48 281.962 1335.26 293.679 1213.71 238.529C1080.85 178.214 1032.03 47.2696 1069.47 -68.8915C1106.92 -185.053 1239.37 -280.321 1337.18 -353.026C1397.84 -398.15 1420.37 -451.27 1425.91 -499.931C1431.46 -548.775 1414.35 -602.589 1353.42 -645.341" stroke="#FFA14A" stroke-miterlimit="10"/>
<path d="M2764.37 1047.68C2623.72 1070.85 2470.84 1052.52 2345.45 997.28C2220.06 942.037 2120.01 851.408 2080.38 746.149C2056.21 682.043 2064.25 613.897 2049.7 552.075C2030.5 470.891 1966.61 416.636 1899.85 375.891C1833.09 335.146 1746.88 308.514 1637.12 287.958C1498.1 262.007 1331.28 276.097 1206.9 222.955C1071.68 165.046 1016.93 34.3872 1051.95 -82.5509C1086.73 -199.505 1219.85 -295.155 1322.92 -364.787C1384.4 -406.369 1410.38 -455.04 1421.03 -500.809C1431.68 -546.579 1421.36 -599.246 1365.47 -642.625" stroke="#FFA14A" stroke-miterlimit="10"/>
<path d="M2720.38 1053.3C2581.02 1074.72 2430.6 1055.24 2307.81 999.58C2185.03 943.918 2087.51 853.399 2049.77 749.127C2026.01 683.53 2035.13 614.304 2022.74 550.733C2006.97 469.724 1949.8 412.906 1887.63 368.73C1825.47 324.553 1742.04 293.085 1634.03 270.778C1494.93 241.845 1327.23 258.665 1200.3 207.366C1062.74 151.681 1002.06 21.4929 1034.42 -96.2388C1066.79 -214.154 1200.32 -310.203 1308.41 -376.776C1370.2 -414.842 1400.38 -459.013 1415.89 -501.904C1431.38 -544.611 1428.06 -595.933 1377.47 -640.107" stroke="#FFA14A" stroke-miterlimit="10"/>
<path d="M2676.68 1059.14C2538.84 1078.81 2390.64 1058.17 2270.2 1002.08C2149.77 945.979 2055.24 855.788 2019.16 752.306C1995.8 685.401 2006.02 614.911 1995.76 549.774C1983.43 468.941 1933.21 409.574 1875.62 361.962C1818.06 314.166 1737.62 278.241 1631.12 253.981C1491.94 222.247 1323.37 241.615 1193.64 192.147C1053.73 138.874 987.142 9.16023 1016.87 -109.732C1046.6 -228.624 1180.57 -325.253 1294.1 -388.364C1356.46 -422.894 1390.35 -462.775 1410.92 -502.4C1431.49 -542.025 1434.94 -592.2 1389.37 -637.001" stroke="#FFA14A" stroke-miterlimit="10"/>
<path d="M2632.97 1064.99C2496.41 1082.91 2350.67 1061.12 2232.61 1004.4C2114.55 947.683 2022.76 857.803 1988.55 755.496C1965.6 687.097 1976.64 615.692 1969.04 548.65C1959.87 468.16 1916.59 406.24 1863.6 355.004C1810.61 303.768 1732.95 262.996 1628.22 236.797C1488.72 202.06 1319.53 224.18 1187.26 176.559C1045.01 125.517 972.28 -3.7371 999.593 -123.407C1026.91 -243.078 1160.85 -340.691 1279.81 -400.151C1342.26 -431.359 1380.3 -466.546 1405.96 -503.271C1431.37 -540.011 1441.81 -588.838 1401.25 -634.269" stroke="#FFA14A" stroke-miterlimit="10"/>
<path d="M2588.99 1070.63C2453.7 1086.97 2310.45 1063.66 2194.72 1006.69C2079.24 949.734 1990.24 859.797 1957.67 758.467C1935.11 688.757 1947 616.069 1941.77 547.473C1935.78 467.143 1899.66 402.682 1851.02 347.802C1802.38 292.922 1727.71 247.498 1624.73 219.542C1485.17 181.814 1315.37 206.504 1180.05 160.888C1035.49 112.08 956.863 -16.6972 981.765 -137.146C1006.42 -257.61 1140.36 -356.391 1264.97 -412.182C1327.78 -440.231 1369.97 -470.719 1400.44 -504.372C1430.92 -538.026 1448.08 -585.519 1412.55 -631.765" stroke="#FFA14A" stroke-miterlimit="10"/>
<path d="M2545.31 1076.49C2411.31 1091.06 2270.26 1066.58 2157.13 1009.19C2044.02 951.616 1958 862.008 1927.06 761.655C1905.16 690.464 1917.4 616.645 1914.79 546.325C1911.73 466.139 1882.77 399.134 1838.69 340.806C1794.62 282.478 1722.96 232.212 1621.72 202.497C1482.11 161.591 1311.43 189.209 1173.59 145.447C1026.71 98.876 942.203 -29.4225 964.453 -150.665C986.703 -271.907 1120.43 -372.241 1250.87 -423.791C1314.03 -448.678 1360.09 -474.294 1395.62 -504.857C1431.15 -535.419 1455.04 -581.763 1424.51 -628.641" stroke="#FFA14A" stroke-miterlimit="10"/>
<path d="M2501.35 1082.33C2368.87 1095.15 2230.04 1069.5 2119.52 1011.51C2009 953.51 1925.71 864.215 1896.43 764.656C1874.92 692.152 1888 617.047 1887.76 545.169C1887.62 465.127 1865.79 395.759 1826.29 333.794C1786.78 271.83 1718.14 216.716 1618.37 185.41C1478.71 141.507 1307.19 171.686 1166.56 129.95C1017.38 85.6196 926.983 -42.0142 946.605 -164.235C966.227 -286.456 1099.75 -388.53 1235.99 -435.65C1299.52 -457.556 1349.45 -478.295 1390.02 -505.765C1430.35 -533.25 1461.2 -578.428 1435.67 -625.938" stroke="#FFA14A" stroke-miterlimit="10"/>
<path d="M2457.68 1088C2326.73 1099.07 2190.1 1072.25 2081.93 1013.81C1973.76 955.379 1893.7 866.244 1865.79 767.834C1844.94 693.846 1858.12 617.591 1860.98 544.016C1863.76 464.118 1849.06 392.199 1814.11 326.777C1779.15 261.356 1713.27 201.374 1615.24 168.305C1475.78 121.233 1303.15 154.331 1160.01 114.454C1008.53 72.3677 912.28 -54.7837 929.502 -177.784C946.742 -300.968 1080.08 -404.969 1222.06 -447.287C1285.99 -466.393 1339.98 -481.865 1385.36 -506.439C1430.73 -531.013 1468.51 -574.657 1447.73 -623.001" stroke="#FFA14A" stroke-miterlimit="10"/>
<path d="M2413.74 1093.85C2284.06 1103.34 2149.9 1075.17 2044.32 1016.32C1938.74 957.462 1861.44 868.455 1835.16 771.024C1814.94 695.734 1828.48 618.159 1833.96 542.852C1839.66 462.912 1832.31 388.637 1801.89 319.754C1771.5 250.687 1708.62 185.846 1612.09 150.996C1472.6 100.737 1299.36 136.604 1153.47 98.7581C999.698 58.9183 897.364 -67.7665 912.208 -191.732C927.051 -315.698 1060.26 -422.182 1207.71 -459.525C1272.01 -475.829 1329.84 -486.23 1380.22 -507.522C1430.61 -528.998 1475.08 -571.491 1459.27 -620.471" stroke="#FFA14A" stroke-miterlimit="10"/>
<path d="M2370.06 1099.72C2241.9 1107.46 2109.95 1078.12 2006.73 1018.64C1903.49 959.344 1829.15 870.666 1804.52 774.034C1784.95 697.258 1798.59 618.53 1806.9 541.692C1815.51 461.896 1815.24 385.249 1789.4 312.531C1763.53 239.999 1703.65 170.295 1608.61 133.663C1469.35 80.0445 1295.01 118.836 1146.36 83.0255C990.306 45.4358 882.123 -80.5775 894.351 -205.523C906.578 -330.468 1039.64 -439.252 1192.74 -471.229C1257.43 -484.727 1319.07 -489.867 1374.48 -508.242C1429.89 -526.617 1481.01 -567.773 1470.21 -617.759" stroke="#FFA14A" stroke-miterlimit="10"/>
<path d="M2326.11 1105.41C2199.25 1111.37 2069.5 1080.85 1968.86 1020.95C1868.23 961.048 1796.85 872.7 1773.6 777.034C1754.67 698.955 1768.44 618.704 1779.57 540.331C1790.86 460.479 1798.15 381.485 1776.58 305.283C1755.02 229.081 1698.36 154.523 1604.81 116.293C1465.76 59.4956 1290.35 101.032 1139.19 67.2741C980.884 31.7527 866.869 -93.5881 876.466 -219.329C886.063 -345.07 1019.54 -457.051 1178.04 -483.488C1243.37 -494.348 1308.8 -494.221 1368.97 -509.507C1429.13 -524.794 1487.16 -564.784 1481.32 -615.407" stroke="#FFA14A" stroke-miterlimit="10"/>
<path d="M2282.5 1111.27C2157.15 1115.65 2029.64 1083.59 1931.32 1023.43C1833.02 963.092 1764.86 874.905 1742.97 780.394C1724.69 700.826 1738.55 619.421 1752.75 539.529C1766.95 459.636 1781.3 378.263 1764.25 298.587C1747.2 218.912 1693.79 139.311 1601.46 99.4647C1462.64 39.3021 1286.12 83.9552 1132.25 52.0533C971.655 18.9734 851.858 -106.062 859.072 -232.582C866.286 -359.102 999.945 -474.297 1163.53 -494.835C1229.76 -503.222 1298.47 -497.484 1363.62 -509.665C1428.77 -521.845 1493.46 -560.682 1492.55 -611.945" stroke="#FFA14A" stroke-miterlimit="10"/>
</g>
</g>
<defs>
<clipPath id="clip0_207_38">
<rect width="1920" height="1080" fill="white"/>
</clipPath>
<clipPath id="clip1_207_38">
<rect width="1920" height="1110" fill="white" transform="translate(-2 -12)"/>
</clipPath>
</defs>
</svg>
